<?xml version="1.0" encoding="utf-8"?>
<!-- Generator: Adobe Illustrator 19.2.1, SVG Export Plug-In . SVG Version: 6.00 Build 0)  -->
<svg version="1.1" id="Connectlogo" xmlns="http://www.w3.org/2000/svg" xmlns:xlink="http://www.w3.org/1999/xlink" x="0px"
	 y="0px" viewBox="0 0 300 300" style="enable-background:new 0 0 300 300;" xml:space="preserve">
<g id="bode">
	<g id="XMLID_28_">
		<polygon id="XMLID_12_" style="fill:#232323;" points="49.6,237 150.1,63 250.4,237 		"/>
		<polygon id="XMLID_26_" style="fill:#2B2928;" points="49.6,237 150.1,63 150.1,237 		"/>
	</g>
	<polygon id="XMLID_2_" style="fill:#1DAA8B;" points="75.1,221.8 150.1,92 225.1,221.8 	"/>
	<polygon id="XMLID_8_" style="fill:#168068;" points="118.8,196 150.1,142 181.2,196 	"/>
	<polygon id="XMLID_11_" style="fill:#4ABBA2;" points="150.1,196 150.1,142 181.2,196 	"/>
</g>
<g id="ro2">
	<g style="opacity:0;">
		<rect x="46" y="69" style="fill:none;stroke:#000000;stroke-miterlimit:10;" width="208" height="208"/>
		<line style="fill:none;stroke:#000000;stroke-miterlimit:10;" x1="46" y1="69" x2="249" y2="272"/>
		<line style="fill:none;stroke:#000000;stroke-miterlimit:10;" x1="46" y1="277" x2="253.5" y2="69.5"/>
		<line style="fill:none;stroke:#000000;stroke-miterlimit:10;" x1="255" y1="173" x2="46" y2="173"/>
		<line style="fill:none;stroke:#000000;stroke-miterlimit:10;" x1="150" y1="70" x2="150" y2="275"/>
		<rect x="46" y="69" style="fill:none;stroke:#000000;stroke-miterlimit:10;" width="52" height="52"/>
		<rect x="98" y="69" style="fill:none;stroke:#000000;stroke-miterlimit:10;" width="52" height="52"/>
		<rect x="150" y="69" style="fill:none;stroke:#000000;stroke-miterlimit:10;" width="52" height="52"/>
		<rect x="202" y="69" style="fill:none;stroke:#000000;stroke-miterlimit:10;" width="52" height="52"/>
		<rect x="46" y="121" style="fill:none;stroke:#000000;stroke-miterlimit:10;" width="52" height="52"/>
		<rect x="98" y="121" style="fill:none;stroke:#000000;stroke-miterlimit:10;" width="52" height="52"/>
		<rect x="150" y="121" style="fill:none;stroke:#000000;stroke-miterlimit:10;" width="52" height="52"/>
		<rect x="202" y="121" style="fill:none;stroke:#000000;stroke-miterlimit:10;" width="52" height="52"/>
		<rect x="46" y="173" style="fill:none;stroke:#000000;stroke-miterlimit:10;" width="52" height="52"/>
		<rect x="98" y="173" style="fill:none;stroke:#000000;stroke-miterlimit:10;" width="52" height="52"/>
		<rect x="150" y="173" style="fill:none;stroke:#000000;stroke-miterlimit:10;" width="52" height="52"/>
		<rect x="202" y="173" style="fill:none;stroke:#000000;stroke-miterlimit:10;" width="52" height="52"/>
		<rect x="46" y="225" style="fill:none;stroke:#000000;stroke-miterlimit:10;" width="52" height="52"/>
		<rect x="98" y="225" style="fill:none;stroke:#000000;stroke-miterlimit:10;" width="52" height="52"/>
		<rect x="150" y="225" style="fill:none;stroke:#000000;stroke-miterlimit:10;" width="52" height="52"/>
		<rect x="202" y="225" style="fill:none;stroke:#000000;stroke-miterlimit:10;" width="52" height="52"/>
	</g>
	<g id="rot">
		<line id="stroke3" style="fill:none;stroke:#2CFFD1;stroke-miterlimit:10;" x1="149.7" y1="172.6" x2="219" y2="125.2"/>
		<line id="stroke2" style="fill:none;stroke:#2CFFD1;stroke-miterlimit:10;" x1="149.7" y1="172.6" x2="71.2" y2="122.5"/>
		<line id="stroke1" style="fill:none;stroke:#2CFFD1;stroke-miterlimit:10;" x1="149.7" y1="172.6" x2="149.7" y2="263.2"/>
		
			<ellipse id="half1light" transform="matrix(0.8791 -0.4767 0.4767 0.8791 -30.0005 123.179)" style="fill:#56FFDA;" cx="227.8" cy="120.7" rx="13.7" ry="13.7"/>
		
			<ellipse id="half2light" transform="matrix(0.5063 -0.8624 0.8624 0.5063 -69.8997 121.4931)" style="fill:#56FFDA;" cx="71.2" cy="121.8" rx="13.7" ry="13.7"/>
		<circle id="half3light" style="fill:#56FFDA;" cx="149.7" cy="263.5" r="13.7"/>
		<path id="half2" style="fill:#21BF9D;" d="M59.3,114.8c-3.8,6.5-1.7,14.9,4.9,18.8s14.9,1.7,18.8-4.9"/>
		<path id="half3" style="fill:#21BF9D;" d="M149.7,249.8c-7.5,0-13.7,6.1-13.7,13.7c0,7.5,6.1,13.7,13.7,13.7"/>
		<path id="half1" style="fill:#21BF9D;" d="M239.8,114.2c-3.6-6.6-11.9-9.2-18.6-5.5s-9.2,11.9-5.5,18.6"/>
	</g>
</g>
</svg>
