<?xml version="1.0" encoding="utf-8"?>
<!-- Generator: Adobe Illustrator 19.2.1, SVG Export Plug-In . SVG Version: 6.00 Build 0)  -->
<svg version="1.1" id="Layer_1" xmlns="http://www.w3.org/2000/svg" xmlns:xlink="http://www.w3.org/1999/xlink" x="0px" y="0px"
	 viewBox="0 0 705 472.6" enable-background="new 0 0 705 472.6" xml:space="preserve">
<circle fill="#3A3735" cx="116.6" cy="96.1" r="72"/>
<circle fill="#3A3735" cx="116.6" cy="330.1" r="72"/>
<circle fill="#3A3735" cx="355.1" cy="96.1" r="72"/>
<circle fill="#3A3735" cx="355.1" cy="331.6" r="72"/>
<circle fill="#3A3735" cx="583.1" cy="96.1" r="72"/>
<circle fill="#3A3735" cx="583.1" cy="331.6" r="72"/>
<rect x="14.4" y="195.5" fill="none" width="200" height="26.2"/>
<text transform="matrix(1 0 0 1 20.896 211.96)" fill="#D8D7D7" font-family="'Exo-Regular'" font-size="21px">Receive Information</text>
<rect x="250.5" y="195.5" fill="none" width="200" height="26.2"/>
<text transform="matrix(1 0 0 1 320.6642 211.96)" fill="#D8D7D7" font-family="'Exo-Regular'" font-size="21px">Relate</text>
<rect x="488.2" y="195.5" fill="none" width="200" height="26.2"/>
<text transform="matrix(1 0 0 1 507.3711 211.96)" fill="#D8D7D7" font-family="'Exo-Regular'" font-size="21px">Unlock Problems</text>
<rect x="14.4" y="429.9" fill="none" width="200" height="26.2"/>
<text transform="matrix(1 0 0 1 63.3359 446.3862)" fill="#D8D7D7" font-family="'Exo-Regular'" font-size="21px">Transform</text>
<rect x="238" y="429.9" fill="none" width="225.5" height="26.2"/>
<text transform="matrix(1 0 0 1 315.7584 446.3862)" fill="#D8D7D7" font-family="'Exo-Regular'" font-size="21px">Growth</text>
<rect x="488.2" y="429.9" fill="none" width="200" height="26.2"/>
<text transform="matrix(1 0 0 1 547.5542 446.3862)" fill="#D8D7D7" font-family="'Exo-Regular'" font-size="21px">Manifest</text>
<g id="relate">
	<rect id="XMLID_90_" x="333.8" y="47.1" fill="#1DAA8B" width="44.8" height="44.8"/>
	<rect id="XMLID_92_" x="333.8" y="102.8" fill="#168068" width="44.8" height="44.8"/>
	<rect id="XMLID_331_" x="351.9" y="67.2" fill="#1A1A1A" width="8.5" height="58"/>
	<rect id="XMLID_368_" x="378.6" y="47" fill="#121212" width="8.5" height="45"/>
	<rect id="XMLID_369_" x="325.2" y="47" fill="#121212" width="8.5" height="45"/>
	<rect id="XMLID_371_" x="378.6" y="102.7" fill="#121212" width="8.5" height="45"/>
	<rect id="XMLID_370_" x="325.2" y="102.7" fill="#121212" width="8.5" height="45"/>
	<g id="XMLID_93_">
		<circle id="XMLID_95_" fill="#E9A30C" cx="356.2" cy="68.6" r="9.4"/>
		<path id="XMLID_94_" fill="#AF7A09" d="M356.2,78c-5.2,0-9.4-4.2-9.4-9.4s4.2-9.4,9.4-9.4"/>
	</g>
	<g id="XMLID_300_">
		<circle id="XMLID_302_" fill="#E9A30C" cx="356.2" cy="125.2" r="9.4"/>
		<path id="XMLID_301_" fill="#AF7A09" d="M356.2,134.6c-5.2,0-9.4-4.2-9.4-9.4s4.2-9.4,9.4-9.4"/>
	</g>
</g>
<g id="receive">
	<g id="XMLID_124_">
		<g id="XMLID_132_">
			<circle id="XMLID_134_" fill="#2B2928" cx="116.6" cy="53.7" r="8.5"/>
			<path id="XMLID_133_" fill="#232323" d="M116.6,62.2c-4.7,0-8.5-3.8-8.5-8.5s3.8-8.5,8.5-8.5"/>
		</g>
		<g id="XMLID_125_">
			<circle id="XMLID_128_" fill="#E9A30C" cx="116.6" cy="53.7" r="6.4"/>
			<path id="XMLID_126_" fill="#AF7A09" d="M116.6,60.1c-3.5,0-6.4-2.8-6.4-6.4s2.8-6.4,6.4-6.4"/>
		</g>
	</g>
	<polyline id="XMLID_123_" fill="none" stroke="#9B3B23" stroke-width="4" stroke-miterlimit="10" points="75.5,78.6 96.1,78.6 
		96.1,97.5 75.5,97.5 	"/>
	<polyline id="XMLID_122_" fill="none" stroke="#9B3B23" stroke-width="4" stroke-miterlimit="10" points="157.7,97.5 137.2,97.5 
		137.2,78.6 157.7,78.6 	"/>
	<polyline id="XMLID_121_" fill="none" stroke="#9B3B23" stroke-width="4" stroke-miterlimit="10" points="75.5,97.5 96.1,97.5 
		96.1,116.4 75.5,116.4 	"/>
	<polyline id="XMLID_120_" fill="none" stroke="#9B3B23" stroke-width="4" stroke-miterlimit="10" points="157.7,116.4 137.2,116.4 
		137.2,97.5 157.7,97.5 	"/>
	
		<line id="XMLID_119_" fill="none" stroke="#9B3B23" stroke-width="4" stroke-miterlimit="10" x1="116.6" y1="59.7" x2="116.6" y2="141.8"/>
	
		<line id="XMLID_118_" fill="none" stroke="#9B3B23" stroke-width="4" stroke-miterlimit="10" x1="75.5" y1="97.5" x2="157.7" y2="97.5"/>
	<g id="XMLID_148_">
		<g id="XMLID_152_">
			<circle id="XMLID_154_" fill="#2B2928" cx="116.6" cy="142.8" r="8.5"/>
			<path id="XMLID_153_" fill="#232323" d="M116.6,151.2c-4.7,0-8.5-3.8-8.5-8.5c0-4.7,3.8-8.5,8.5-8.5"/>
		</g>
		<g id="XMLID_149_">
			<circle id="XMLID_151_" fill="#E9A30C" cx="116.6" cy="142.8" r="6.4"/>
			<path id="XMLID_150_" fill="#AF7A09" d="M116.6,149.1c-3.5,0-6.4-2.8-6.4-6.4c0-3.5,2.8-6.4,6.4-6.4"/>
		</g>
	</g>
</g>
<g id="unlock">
	<rect id="XMLID_296_" x="579.9" y="55.1" fill="#121212" width="8" height="79"/>
	<rect id="XMLID_295_" x="553.1" y="84.6" fill="#232323" width="61.9" height="25"/>
	<circle id="XMLID_294_" fill="#E9A30C" cx="584" cy="97.1" r="12.5"/>
	<rect id="XMLID_293_" x="553.1" y="109.6" fill="#EDB53D" width="61.9" height="5.8"/>
	
		<rect id="XMLID_291_" x="609" y="70.1" transform="matrix(0.7071 -0.7071 0.7071 0.7071 130.6817 461.5139)" fill="#742C1A" width="27" height="5.8"/>
	
		<rect id="XMLID_290_" x="532.2" y="118.3" transform="matrix(0.7071 -0.7071 0.7071 0.7071 74.1464 421.3243)" fill="#EDB53D" width="27" height="5.8"/>
	
		<rect id="XMLID_289_" x="619.5" y="107.7" transform="matrix(0.7071 -0.7071 0.7071 0.7071 96.6214 475.6156)" fill="#EDB53D" width="5.8" height="27"/>
	
		<rect id="XMLID_288_" x="542.7" y="59.5" transform="matrix(0.7071 -0.7071 0.7071 0.7071 108.1796 407.2033)" fill="#742C1A" width="5.8" height="27"/>
	<path id="XMLID_287_" fill="#AF7A09" d="M584,109.6c-6.9,0-12.5-5.6-12.5-12.5c0-6.9,5.6-12.5,12.5-12.5"/>
	<rect id="XMLID_286_" x="553.1" y="78.8" fill="#742C1A" width="61.9" height="5.8"/>
	<circle id="XMLID_285_" fill="#742C1A" cx="584" cy="97.1" r="7.1"/>
	<path id="XMLID_284_" fill="#9B3B23" d="M577,97.1c0-3.9,3.2-7.1,7.1-7.1s7.1,3.2,7.1,7.1"/>
	<polygon id="XMLID_283_" fill="#121212" points="534.1,65.5 534.1,128.6 553.1,109.5 553.1,84.6 	"/>
	<polygon id="XMLID_282_" fill="#121212" points="615,84.6 615,109.6 634,128.6 634,65.6 	"/>
</g>
<g id="Manifest">
	<path fill="#9B3B23" d="M622,368.8l-11.4-19.7h0.1l-19-32.9l13-22.6l-3.4-2l-11.9,20.6l0,0l-19,32.9h-24.6v3.9h22.4h38l12.5,21.6
		L622,368.8z M575,345.2l14.4-25l14.4,25H575z"/>
	<g id="XMLID_1_">
		<g id="XMLID_5_">
			<circle id="XMLID_7_" fill="#2B2928" cx="602.3" cy="293.6" r="7.4"/>
			<path id="XMLID_6_" fill="#232323" d="M602.3,301c-4.1,0-7.4-3.3-7.4-7.4s3.3-7.4,7.4-7.4"/>
		</g>
		<g id="XMLID_2_">
			<circle id="XMLID_4_" fill="#E9A30C" cx="602.3" cy="293.6" r="5.6"/>
			<path id="XMLID_3_" fill="#AF7A09" d="M602.3,299.1c-3.1,0-5.6-2.5-5.6-5.6s2.5-5.6,5.6-5.6"/>
		</g>
	</g>
	<g id="XMLID_8_">
		<g id="XMLID_12_">
			<circle id="XMLID_14_" fill="#2B2928" cx="619.3" cy="369.4" r="7.4"/>
			<path id="XMLID_13_" fill="#232323" d="M619.3,376.9c-4.1,0-7.4-3.3-7.4-7.4s3.3-7.4,7.4-7.4"/>
		</g>
		<g id="XMLID_9_">
			<circle id="XMLID_11_" fill="#E9A30C" cx="619.3" cy="369.4" r="5.6"/>
			<path id="XMLID_10_" fill="#AF7A09" d="M619.3,375c-3.1,0-5.6-2.5-5.6-5.6s2.5-5.6,5.6-5.6"/>
		</g>
	</g>
	<g id="XMLID_15_">
		<g id="XMLID_19_">
			<circle id="XMLID_21_" fill="#2B2928" cx="546.7" cy="347.2" r="7.4"/>
			<path id="XMLID_20_" fill="#232323" d="M546.7,354.6c-4.1,0-7.4-3.3-7.4-7.4s3.3-7.4,7.4-7.4"/>
		</g>
		<g id="XMLID_16_">
			<circle id="XMLID_18_" fill="#E9A30C" cx="546.7" cy="347.2" r="5.6"/>
			<path id="XMLID_17_" fill="#AF7A09" d="M546.7,352.8c-3.1,0-5.6-2.5-5.6-5.6s2.5-5.6,5.6-5.6"/>
		</g>
	</g>
</g>
<g id="Extend">
	<g>
		<g id="XMLID_221_">
			
				<line id="XMLID_223_" fill="none" stroke="#9B3B23" stroke-width="5" stroke-miterlimit="10" x1="400.3" y1="331" x2="313.8" y2="331"/>
			
				<line id="XMLID_222_" fill="none" stroke="#9B3B23" stroke-width="5" stroke-miterlimit="10" x1="357.1" y1="374.3" x2="357.1" y2="287.7"/>
		</g>
		<g id="XMLID_22_">
			
				<line id="XMLID_24_" fill="none" stroke="#9B3B23" stroke-width="5" stroke-miterlimit="10" x1="299.5" y1="316.4" x2="314.2" y2="331.1"/>
			
				<line id="XMLID_23_" fill="none" stroke="#9B3B23" stroke-width="5" stroke-miterlimit="10" x1="299.5" y1="345.6" x2="314.1" y2="331"/>
		</g>
		<g id="XMLID_25_">
			
				<line id="XMLID_27_" fill="none" stroke="#9B3B23" stroke-width="5" stroke-miterlimit="10" x1="414.9" y1="316.4" x2="400.2" y2="331.1"/>
			
				<line id="XMLID_26_" fill="none" stroke="#9B3B23" stroke-width="5" stroke-miterlimit="10" x1="414.9" y1="345.6" x2="400.3" y2="331"/>
		</g>
	</g>
	<g>
		<g id="XMLID_264_">
			<circle id="XMLID_266_" fill="#2B2928" cx="357.1" cy="331" r="7.1"/>
			<path id="XMLID_265_" fill="#232323" d="M357.1,338.1c-3.9,0-7.1-3.2-7.1-7.1s3.2-7.1,7.1-7.1"/>
		</g>
		<g id="XMLID_261_">
			<circle id="XMLID_263_" fill="#E9A30C" cx="357.1" cy="331" r="5.3"/>
			<path id="XMLID_262_" fill="#AF7A09" d="M357.1,336.3c-2.9,0-5.3-2.4-5.3-5.3s2.4-5.3,5.3-5.3"/>
		</g>
	</g>
</g>
<g id="Transform">
	<polygon id="XMLID_53_" fill="#232323" points="70.6,303.7 116.4,277.2 162.1,303.7 162.1,356.5 116.4,382.9 70.6,356.5 	"/>
	<polygon id="XMLID_52_" fill="#1A1A1A" points="70.6,303.7 116.4,277.2 116.4,382.9 70.6,356.5 	"/>
	<polygon id="XMLID_51_" fill="#1DAA8B" points="116.4,309 116.4,277.4 143.7,293.3 	"/>
	<polygon id="XMLID_50_" fill="#1DAA8B" points="70.6,356.5 70.8,325 98,341 	"/>
	<polygon id="XMLID_49_" fill="#168068" points="70.6,356.5 70.7,340.7 70.8,325 84.4,333 	"/>
	<polygon id="XMLID_48_" fill="#1DAA8B" points="134.7,372.3 135,340.7 162.1,356.7 	"/>
	<polygon id="XMLID_47_" fill="#168068" points="116.4,309 116.4,293.2 116.4,277.4 130,301.1 	"/>
	<polygon id="XMLID_46_" fill="#168068" points="134.7,372.3 134.8,356.5 162.1,356.7 148.4,364.5 	"/>
	<g id="XMLID_28_">
		<g id="XMLID_43_">
			<circle id="XMLID_45_" fill="#3A3735" cx="116.4" cy="330.1" r="12"/>
			<path id="XMLID_44_" fill="#232323" d="M116.4,342.1c-6.6,0-12-5.4-12-12c0-6.6,5.4-12,12-12"/>
		</g>
		<g id="XMLID_33_">
			
				<line id="XMLID_42_" fill="none" stroke="#9B3B23" stroke-width="4" stroke-linecap="round" stroke-miterlimit="10" x1="116.4" y1="330.1" x2="70.6" y2="356.5"/>
			
				<line id="XMLID_40_" fill="none" stroke="#9B3B23" stroke-width="4" stroke-linecap="round" stroke-miterlimit="10" x1="162.1" y1="356.5" x2="116.4" y2="330.1"/>
			
				<line id="XMLID_39_" fill="none" stroke="#9B3B23" stroke-width="4" stroke-linecap="round" stroke-miterlimit="10" x1="116.4" y1="277.2" x2="116.4" y2="330.1"/>
			
				<line id="XMLID_38_" fill="none" stroke="#9B3B23" stroke-width="4" stroke-linecap="round" stroke-miterlimit="10" x1="162.1" y1="356.5" x2="116.4" y2="382.9"/>
			
				<line id="XMLID_37_" fill="none" stroke="#9B3B23" stroke-width="4" stroke-linecap="round" stroke-miterlimit="10" x1="162.1" y1="303.7" x2="116.4" y2="277.2"/>
			
				<line id="XMLID_36_" fill="none" stroke="#9B3B23" stroke-width="4" stroke-linecap="round" stroke-miterlimit="10" x1="70.6" y1="356.5" x2="70.6" y2="303.7"/>
		</g>
		<g id="XMLID_29_">
			<circle id="XMLID_32_" fill="#E9A30C" cx="116.4" cy="330.1" r="9"/>
			<path id="XMLID_31_" fill="#AF7A09" d="M116.4,339.1c-5,0-9-4-9-9s4-9,9-9"/>
		</g>
	</g>
</g>
</svg>
