<?xml version="1.0" encoding="iso-8859-1"?>
<!-- Generator: Adobe Illustrator 19.2.1, SVG Export Plug-In . SVG Version: 6.00 Build 0)  -->
<svg version="1.1" id="header-space" xmlns="http://www.w3.org/2000/svg" xmlns:xlink="http://www.w3.org/1999/xlink" x="0px"
	 y="0px" viewBox="0 0 600 200" style="enable-background:new 0 0 600 200;" xml:space="preserve">
<linearGradient id="SVGID_1_" gradientUnits="userSpaceOnUse" x1="-147.5011" y1="160.1667" x2="802.1678" y2="160.1667">
	<stop  offset="0" style="stop-color:#4ABBA2"/>
	<stop  offset="1" style="stop-color:#0F5546"/>
</linearGradient>
<polygon style="fill:url(#SVGID_1_);" points="-147.5,200 -68.4,120.3 9.7,200 93.1,120.3 168,200 249.2,120.3 327.3,200 
	407.5,120.3 485.6,200 564.8,120.3 643.9,200 723,120.3 802.2,200 "/>
<linearGradient id="SVGID_2_" gradientUnits="userSpaceOnUse" x1="-142.4857" y1="164.1667" x2="711.819" y2="164.1667">
	<stop  offset="0" style="stop-color:#4ABBA2"/>
	<stop  offset="1" style="stop-color:#0F5546"/>
</linearGradient>
<polygon style="fill:url(#SVGID_2_);" points="-142.5,200 -71.3,128.3 -1.1,200 73.9,128.3 141.3,200 214.4,128.3 284.7,200 
	356.8,128.3 427.1,200 498.2,128.3 569.4,200 640.6,128.3 711.8,200 "/>
<linearGradient id="SVGID_3_" gradientUnits="userSpaceOnUse" x1="-144.4371" y1="155.1667" x2="924.4371" y2="155.1667">
	<stop  offset="0" style="stop-color:#4ABBA2"/>
	<stop  offset="1" style="stop-color:#0F5546"/>
</linearGradient>
<polygon style="fill:url(#SVGID_3_);" points="-144.4,200 -55.4,110.3 32.5,200 126.3,110.3 210.7,200 302.1,110.3 390,200 
	480.3,110.3 568.1,200 657.2,110.3 746.3,200 835.4,110.3 924.4,200 "/>
<linearGradient id="SVGID_4_" gradientUnits="userSpaceOnUse" x1="0" y1="174.8333" x2="600" y2="174.8333">
	<stop  offset="0" style="stop-color:#4ABBA2"/>
	<stop  offset="1" style="stop-color:#0F5546"/>
</linearGradient>
<polygon style="fill:url(#SVGID_4_);" points="0,200 50,149.7 99.3,200 152,149.7 199.3,200 250.7,149.7 300,200 350.7,149.7 
	400,200 450,149.7 500,200 550,149.7 600,200 "/>
<linearGradient id="SVGID_5_" gradientUnits="userSpaceOnUse" x1="-147.5011" y1="160.1667" x2="802.1678" y2="160.1667">
	<stop  offset="0" style="stop-color:#4ABBA2"/>
	<stop  offset="1" style="stop-color:#0F5546"/>
</linearGradient>
<polygon style="fill:url(#SVGID_5_);" points="-147.5,200 -68.4,120.3 9.7,200 93.1,120.3 168,200 249.2,120.3 327.3,200 
	407.5,120.3 485.6,200 564.8,120.3 643.9,200 723,120.3 802.2,200 "/>
<linearGradient id="SVGID_6_" gradientUnits="userSpaceOnUse" x1="-142.4857" y1="164.1667" x2="711.819" y2="164.1667">
	<stop  offset="0" style="stop-color:#0F5546"/>
	<stop  offset="1" style="stop-color:#4ABBA2"/>
</linearGradient>
<polygon style="fill:url(#SVGID_6_);" points="-142.5,200 -71.3,128.3 -1.1,200 73.9,128.3 141.3,200 214.4,128.3 284.7,200 
	356.8,128.3 427.1,200 498.2,128.3 569.4,200 640.6,128.3 711.8,200 "/>
<linearGradient id="SVGID_7_" gradientUnits="userSpaceOnUse" x1="-144.4371" y1="155.1667" x2="924.4371" y2="155.1667">
	<stop  offset="0" style="stop-color:#0F5546"/>
	<stop  offset="1" style="stop-color:#4ABBA2"/>
</linearGradient>
<polygon style="fill:url(#SVGID_7_);" points="-144.4,200 -55.4,110.3 32.5,200 126.3,110.3 210.7,200 302.1,110.3 390,200 
	480.3,110.3 568.1,200 657.2,110.3 746.3,200 835.4,110.3 924.4,200 "/>
<linearGradient id="SVGID_8_" gradientUnits="userSpaceOnUse" x1="0" y1="174.8333" x2="600" y2="174.8333">
	<stop  offset="0" style="stop-color:#4ABBA2"/>
	<stop  offset="1" style="stop-color:#0F5546"/>
</linearGradient>
<polygon style="fill:url(#SVGID_8_);" points="0,200 50,149.7 99.3,200 152,149.7 199.3,200 250.7,149.7 300,200 350.7,149.7 
	400,200 450,149.7 500,200 550,149.7 600,200 "/>
</svg>
