<?xml version="1.0" encoding="utf-8"?>
<!-- Generator: Adobe Illustrator 19.0.0, SVG Export Plug-In . SVG Version: 6.00 Build 0)  -->
<svg version="1.1" id="header-space" xmlns="http://www.w3.org/2000/svg" xmlns:xlink="http://www.w3.org/1999/xlink" x="0px" y="0px"
	 viewBox="0 0 600 200" style="enable-background:new 0 0 600 200;" xml:space="preserve">
<style type="text/css">
	.st0{fill:#D2EEE8;}
	.st1{fill:none;stroke:#D2EEE8;stroke-miterlimit:10;}
	.st2{fill:#A5DDD1;}
	.st3{fill:#1D544C;}
	.st4{fill:#38A495;}
	.st5{fill:#2B7C73;}
	.st6{fill:#2A7C70;}
	.st7{fill:#9B3B23;}
	.st8{fill:#1D544E;}
	.st9{fill:#38A499;}
</style>
<g id="XMLID_81_">
	<circle id="XMLID_83_" class="st0" cx="495" cy="86.8" r="34.7"/>
	<circle id="XMLID_82_" class="st1" cx="495" cy="86.8" r="50.6"/>
	<path id="XMLID_59_" class="st2" d="M470.5,111.4c-13.5-13.5-13.5-35.5,0-49.1c13.5-13.5,35.5-13.5,49.1,0"/>
</g>
<path id="XMLID_248_" class="st2" d="M409.6,62.9c-11.4,11.4-29.8,11.4-41.2,0s-11.4-29.8,0-41.2"/>
<polygon id="XMLID_88_" class="st3" points="0,147 12,112.6 25.8,154.7 46,130.4 83.3,163 130.5,142.1 162.2,167.5 212,130.4
	240.1,167.5 300,154.7 356.5,184.8 408.8,151.6 442.6,184.8 448.8,161.5 463,179.4 492.5,161.5 521.5,184.8 569.4,138.5
	577.9,154.7 600,100 600,200 0,200 "/>
<polygon id="XMLID_87_" class="st4" points="569.4,138.5 559,200 507.6,200 "/>
<polygon id="XMLID_86_" class="st5" points="12,112.6 31.7,200 0,200 0,147 "/>
<polygon id="XMLID_85_" class="st6" points="212,130.4 165.5,200 119,200 "/>
<polygon id="XMLID_84_" class="st6" points="300,154.7 287,200 193.2,200 240.1,167.5 "/>
<polygon id="XMLID_79_" class="st5" points="46,130.4 47,200 0,200 25.8,154.7 "/>
<polygon id="XMLID_78_" class="st6" points="130.5,142.1 83.3,200 47,200 80.3,164.5 "/>
<path id="XMLID_77_" class="st6" d="M600,200l-52.4-53.4l-38.8,35.1l-34.5-17.3c0,0-34,23.4-38.3,23.4s-55.8-12.3-55.8-12.3
	L330.3,195l-79.1-61.9L188,195.6l-30.7-16.2l-35.1,13.8l-45.9-70.3l-16,70.3L9,146.2L0,200H600z"/>
<polygon id="XMLID_76_" class="st5" points="600,100 577.3,200 559,200 "/>
<polygon id="XMLID_73_" class="st3" points="76.3,122.9 101,200 125.8,200 "/>
<polygon id="XMLID_72_" class="st3" points="251.2,133.1 269.7,200 335.7,200 "/>
<polygon id="XMLID_75_" class="st3" points="474.2,164.5 476.2,200 541,200 "/>
<g id="XMLID_60_">
	<path id="XMLID_2_" class="st7" d="M33.3,89.9h9.1v41.9h43.1V89.9h9.1v90h-9.1v-39H42.4v39h-9.1V89.9z"/>
	<path id="XMLID_4_" class="st7" d="M111.8,105.9c0-12.1,7.3-16.4,15.5-16l38.9,2V99h-38.9c-6.4,0-6.4,3.6-6.4,6.9v24.6l40.3,1.2
		v7.3l-40.3,1.2v24.6c0.1,6.5,4.1,6.4,7.6,6.4h37.6v7l-37.6,2.1c-8.1,0.5-16.7-1.6-16.7-15.5V105.9z"/>
	<path id="XMLID_6_" class="st7" d="M181.6,89.9h9.1v74.5c0,6.5,4.1,6.4,7.6,6.4h37.6v9.1h-37.6c-8.1,0-16.7-1.6-16.7-15.5V89.9z"/>
	<path id="XMLID_8_" class="st7" d="M250.1,89.9h9.1v74.5c0,6.5,4.1,6.4,7.6,6.4h37.6v9.1h-37.6c-8.1,0-16.7-1.6-16.7-15.5V89.9z"/>
	<path id="XMLID_10_" class="st7" d="M348,89.3c21.3,0,34.7,4.1,34.7,46.2c0,39.7-12.5,44.9-34.7,44.9c-22.1,0-34.9-3.9-34.9-44.9
		C313,93.3,327.3,89.3,348,89.3z M348,171.3c19.2,0,25.6-5.2,25.6-35.8c0-36.8-8.9-37.1-25.6-37.1c-16.4,0-25.8,0.4-25.8,37.1
		C322.1,167.1,328.5,171.3,348,171.3z"/>
</g>
<polygon id="XMLID_74_" class="st8" points="9,146.2 31.7,200 68.3,200 "/>
<polygon id="XMLID_71_" class="st6" points="408.8,151.6 379.8,200 333.2,200 "/>
<polygon id="XMLID_70_" class="st4" points="547.6,146.6 535,200 487,200 "/>
<path id="XMLID_69_" class="st4" d="M0,200l52.4-51.3l38.8,33.7l34.5-16.6c0,0,34,22.5,38.3,22.5c4.3,0,55.8-11.8,55.8-11.8
	l49.8,18.7l79.1-59.5l63.2,60.1l30.7-15.6l35.1,13.3l45.9-67.5l16,67.5l54.6-31L600,200H0z"/>
<polygon id="XMLID_68_" class="st3" points="343.1,200 348.8,135.7 417,200 "/>
<polygon id="XMLID_67_" class="st3" points="442.7,180.1 457.7,200 495,200 "/>
<polygon id="XMLID_66_" class="st3" points="523.7,125.9 519.7,200 541,200 "/>
<polygon id="XMLID_65_" class="st3" points="219.8,176.5 232.5,200 287,200 "/>
<polygon id="XMLID_64_" class="st3" points="125.8,165.8 141,200 183.1,200 "/>
<polygon id="XMLID_63_" class="st8" points="52.4,148.7 68.3,200 111.7,200 "/>
<polygon id="XMLID_62_" class="st9" points="9,146.2 0,200 37,200 "/>
<polygon id="XMLID_44_" class="st5" points="594.2,162.5 569.7,200 600,200 "/>
</svg>
