<?xml version="1.0" encoding="iso-8859-1"?>
<!-- Generator: Adobe Illustrator 19.2.1, SVG Export Plug-In . SVG Version: 6.00 Build 0)  -->
<svg version="1.1" id="header-space" xmlns="http://www.w3.org/2000/svg" xmlns:xlink="http://www.w3.org/1999/xlink" x="0px"
	 y="0px" viewBox="0 0 600 200" style="enable-background:new 0 0 600 200;" xml:space="preserve">
<polygon id="XMLID_683_" points="0.1,199.8 0.1,100.3 33.5,133.1 40,120.5 67.3,134.2 100.1,100.8 133.6,134.4 149.7,101.6 
	160.3,121.4 200.1,101.6 233,133.4 249.2,101.2 265.7,133.8 300.1,100.9 332.9,134.2 349,104.1 365.8,134.2 400.9,100.9 
	432.9,134.2 449.5,100.3 467,134.2 500.2,100.8 533.2,134.2 599.8,100.9 598.9,200.1 "/>
<polygon id="XMLID_682_" style="fill:#2E2D2A;" points="0.1,199.8 33.5,133.1 49.8,151.1 67.3,134.2 80,160.9 100.4,150.2 
	133.5,167.7 167.1,134.2 199.2,199.8 233,133.4 249.2,151.1 265.7,133.8 279.3,160.9 299.7,150.2 332.3,167.2 365.8,134.2 
	398.5,199.8 432.9,134.2 449.9,150.1 467,134.2 479.7,160.9 500.6,150.2 532.7,167.2 566.8,134.2 598.9,200.1 "/>
<g id="XMLID_60_">
	<path id="XMLID_2_" style="fill:#D8D7D7;" d="M48.7,22.1h6.6v30.4h31.3V22.1h6.6v65.3h-6.6V59.1H55.3v28.3h-6.6
		C48.7,87.4,48.7,22.1,48.7,22.1z"/>
	<path id="XMLID_4_" style="fill:#D8D7D7;" d="M105.6,33.7c0-8.8,5.3-11.9,11.2-11.6l28.2,1.5v5.2h-28.2c-4.6,0-4.6,2.6-4.6,5v17.8
		l29.2,0.9v5.3l-29.2,0.9v17.8c0.1,4.7,3,4.6,5.5,4.6H145v5.1l-27.3,1.5c-5.9,0.4-12.1-1.2-12.1-11.2L105.6,33.7L105.6,33.7z"/>
	<path id="XMLID_6_" style="fill:#D8D7D7;" d="M156.3,22.1h6.6v54.1c0,4.7,3,4.6,5.5,4.6h27.3v6.6h-27.3c-5.9,0-12.1-1.2-12.1-11.2
		L156.3,22.1L156.3,22.1z"/>
	<path id="XMLID_8_" style="fill:#D8D7D7;" d="M206,22.1h6.6v54.1c0,4.7,3,4.6,5.5,4.6h27.3v6.6h-27.3c-5.9,0-12.1-1.2-12.1-11.2
		V22.1L206,22.1z"/>
	<path id="XMLID_10_" style="fill:#D8D7D7;" d="M277,21.7c15.5,0,25.2,3,25.2,33.5c0,28.8-9.1,32.6-25.2,32.6
		c-16,0-25.3-2.8-25.3-32.6C251.6,24.6,262,21.7,277,21.7z M277,81.1c13.9,0,18.6-3.8,18.6-26c0-26.7-6.5-26.9-18.6-26.9
		c-11.9,0-18.7,0.3-18.7,26.9C258.2,78.1,262.8,81.1,277,81.1z"/>
</g>
<circle id="XMLID_681_" style="fill:#9B3B23;" cx="484.5" cy="59.3" r="24.1"/>
<circle id="XMLID_680_" style="fill:none;stroke:#77CCB9;stroke-miterlimit:10;" cx="484.5" cy="59.3" r="29.1"/>
<polygon id="XMLID_678_" style="fill:#616161;" points="-0.5,199.9 49.2,151.2 100,199.9 133,134.3 198.6,199.9 248.6,151.2 
	299,200.3 332.3,134.3 397.9,199.9 449.3,150.2 499.2,200.3 532.6,134.3 598.3,200.2 "/>
<polygon id="XMLID_677_" style="fill:#616161;" points="0,200 66.7,166.4 100,200 133.6,166 199.3,199.2 266.3,165.7 297.9,198 
	333.3,165.4 399.9,199.4 466.7,165.6 499.9,199.4 533.3,166.8 598.8,200 "/>
<g id="XMLID_659_" style="opacity:0;">
	<polygon id="XMLID_676_" style="fill:#43CE8B;" points="438.8,65 447.6,49.8 456.4,65 	"/>
	<polygon id="XMLID_675_" style="fill:#43CE8B;" points="546.9,75.1 573.5,61.1 572.3,91.1 	"/>
	<polygon id="XMLID_674_" style="fill:#43CE8B;" points="359,86 360.8,63.2 379.7,76.2 	"/>
	<polygon id="XMLID_673_" style="fill:#43CE8B;" points="311.8,60.3 313.7,37.5 332.5,50.5 	"/>
	<polygon id="XMLID_672_" style="fill:#43CE8B;" points="257.2,87.1 259,64.2 277.9,77.2 	"/>
	<polygon id="XMLID_671_" style="fill:#43CE8B;" points="268.7,47.4 280.4,41.8 279.4,54.7 	"/>
	<polygon id="XMLID_670_" style="fill:#43CE8B;" points="457.3,75.3 469,69.6 468,82.5 	"/>
	<polygon id="XMLID_669_" style="fill:#43CE8B;" points="523.7,43.1 535.4,37.5 534.5,50.4 	"/>
	<polygon id="XMLID_668_" style="fill:#43CE8B;" points="429.4,89.2 441.1,83.6 440.2,96.5 	"/>
	<polygon id="XMLID_667_" style="fill:#43CE8B;" points="424.1,75.3 435.7,69.6 434.8,82.5 	"/>
	<polygon id="XMLID_666_" style="fill:#43CE8B;" points="290.1,58.1 301.8,52.5 300.9,65.4 	"/>
	<polygon id="XMLID_665_" style="fill:#43CE8B;" points="727.3,41 739,35.3 738.1,48.3 	"/>
	<polygon id="XMLID_664_" style="fill:#43CE8B;" points="757.3,75.3 769,69.6 768.1,82.5 	"/>
	<polygon id="XMLID_663_" style="fill:#43CE8B;" points="223.7,75.3 235.3,69.6 234.4,82.5 	"/>
	<polygon id="XMLID_662_" style="fill:#43CE8B;" points="634.8,58 661.3,44 660.2,74 	"/>
	<polygon id="XMLID_661_" style="fill:#43CE8B;" points="682.7,65.7 701.3,42.1 712.4,70 	"/>
	<polygon id="XMLID_660_" style="fill:#43CE8B;" points="714.1,75.1 740.6,61.1 739.5,91.1 	"/>
</g>
<rect x="131" y="243" style="fill:#2B2928;" width="187" height="187"/>
</svg>
