<?xml version="1.0" encoding="utf-8"?>
<!-- Generator: Adobe Illustrator 19.0.0, SVG Export Plug-In . SVG Version: 6.00 Build 0)  -->
<svg version="1.1" id="header-space" xmlns="http://www.w3.org/2000/svg" xmlns:xlink="http://www.w3.org/1999/xlink" x="0px"
	 y="0px" viewBox="42 264.5 600 200" style="enable-background:new 42 264.5 600 200;" xml:space="preserve">
<path id="XMLID_217_" style="fill:#2A7466;" d="M641,464.2L588.8,411l-38.7,35l-34.4-17.2c0,0-33.9,23.3-38.2,23.3
	s-55.6-12.2-55.6-12.2l-49.7,19.4l-78.9-61.7l-62.9,62.3l-30.6-16.2l-34.9,13.8l-45.8-70l-15.9,70l-51.2-46.8l-9,53.6H641z"/>
<g id="XMLID_324_">
	<circle id="XMLID_345_" style="fill:#D9F5E8;" cx="537.5" cy="382.6" r="24.9"/>
	<circle id="XMLID_343_" style="fill:none;stroke:#EDB53D;stroke-miterlimit:10;" cx="537.5" cy="382.6" r="36.4"/>
	<path id="XMLID_328_" style="fill:#B4EBD1;" d="M537.5,407.5c-13.8,0-24.9-11.2-24.9-24.9s11.2-24.9,24.9-24.9"/>
</g>
<polygon id="XMLID_322_" style="fill:#1B4C43;" points="43,411.3 54.9,377 68.7,419 88.8,394.8 126,427.2 173,406.4 204.6,431.7 
	254.2,394.8 282.3,431.7 342,419 398.3,449 450.5,415.9 484.2,449 490.3,425.7 504.4,443.6 533.9,425.7 562.8,449 610.5,402.8 
	619,419 641,364.5 641,464.2 43,464.2 "/>
<polygon id="XMLID_321_" style="fill:#2F9C86;" points="610.5,402.8 600.2,464.2 548.9,464.2 "/>
<polygon id="XMLID_320_" style="fill:#2A7466;" points="54.9,377 74.5,464.2 43,464.2 43,411.3 "/>
<path id="XMLID_316_" style="fill:#8EE2B9;" d="M621.2,270.5c7.4,7.4,7.4,19.4,0,26.8s-19.4,7.4-26.8,0"/>
<polygon id="XMLID_288_" style="fill:#2A7466;" points="254.2,394.8 207.9,464.2 161.6,464.2 "/>
<polygon id="XMLID_249_" style="fill:#2A7466;" points="342,419 329,464.2 235.5,464.2 282.3,431.7 "/>
<polygon id="XMLID_232_" style="fill:#2A7466;" points="88.8,394.8 89.8,464.2 43,464.2 68.7,419 "/>
<path id="XMLID_248_" style="fill:#69D8A2;" d="M471.4,344c-11.3,11.3-29.7,11.3-41.1,0s-11.3-29.7,0-41.1"/>
<polygon id="XMLID_175_" style="fill:#1B4C43;" points="119.1,387.3 143.6,464.2 168.3,464.2 "/>
<polygon id="XMLID_208_" style="fill:#2A7466;" points="173,406.4 126,464.2 89.8,464.2 123,428.7 "/>
<polygon id="XMLID_178_" style="fill:#1B4C43;" points="293.4,397.5 311.8,464.2 377.6,464.2 "/>
<g>
	<path style="fill:#9B3B23;" d="M72.1,372.5l17,48.2l14.5-48.2h6.7l-5.4,18.7l10.6,30l15-48.7h6.5l-18.3,58.6h-5.9l-11-29.9
		l-9.7,29.9h-5.9l-20.6-58.6H72.1z"/>
	<path style="fill:#9B3B23;" d="M143,382.9c0-7.8,4.7-10.6,10.1-10.4l25.3,1.3v4.6h-25.3c-4.2,0-4.2,2.3-4.2,4.5v16l26.2,0.8v4.7
		l-26.2,0.8v16c0.1,4.2,2.6,4.2,5,4.2h24.5v4.6l-24.5,1.4c-5.3,0.3-10.9-1-10.9-10.1V382.9z"/>
	<path style="fill:#9B3B23;" d="M188.4,372.5h22.6c11.7,0,15.2,8.6,15.2,15.2c0,5.9-1.7,11.2-7.4,13c3.5,0.8,7.7,5,7.7,14.1
		c0,8.2-3.2,16.3-15.5,16.3h-22.6V372.5z M210.9,397.5c6,0,9.3-3.2,9.3-9.8c0-7.8-5.1-9.3-9.3-9.3h-16.6v19H210.9z M210.9,425.2
		c3.8,0,9.6-1,9.6-10.6c0-5.9-2.9-11.2-9.6-11.2h-16.6v21.8H210.9z"/>
	<path style="fill:#9B3B23;" d="M234.9,386.3c0-11.6,6.9-14.2,15.8-14.2c4.2,0,17,1.5,20,1.9v4.8c-5.1-0.3-20-0.8-20-0.8
		c-5.6-0.2-9.9,0.3-9.9,8.3v5.3c0,7.3,3.4,7.8,8.2,7.8h11.4c10.6,0,12.5,7.2,12.5,13.8v5.4c0,11.4-8.2,13.1-16.2,13.1
		c-3.9,0-16.3-1.4-20-2v-4.8c3.2,0.3,12.6,0.9,20,0.9c3.3,0,10.2-0.2,10.2-7.2v-5.4c0-4.6-1.4-7.8-6.6-7.8h-11.2
		c-12.8,0-14.2-7-14.2-13.8V386.3z"/>
	<path style="fill:#9B3B23;" d="M282.8,372.5h5.9v58.6h-5.9V372.5z"/>
	<path style="fill:#9B3B23;" d="M297.1,372.5h40.6v5.9h-17.6v52.6h-5.9v-52.6h-17.1V372.5z"/>
	<path style="fill:#9B3B23;" d="M344.5,382.9c0-7.8,4.7-10.6,10.1-10.4l25.3,1.3v4.6h-25.3c-4.2,0-4.2,2.3-4.2,4.5v16l26.2,0.8v4.7
		l-26.2,0.8v16c0.1,4.2,2.6,4.2,5,4.2h24.5v4.6l-24.5,1.4c-5.3,0.3-10.9-1-10.9-10.1V382.9z"/>
	<path style="fill:#9B3B23;" d="M388.7,386.3c0-11.6,6.9-14.2,15.8-14.2c4.2,0,17,1.5,20,1.9v4.8c-5.1-0.3-20-0.8-20-0.8
		c-5.6-0.2-9.9,0.3-9.9,8.3v5.3c0,7.3,3.4,7.8,8.2,7.8h11.4c10.6,0,12.5,7.2,12.5,13.8v5.4c0,11.4-8.2,13.1-16.2,13.1
		c-3.9,0-16.3-1.4-20-2v-4.8c3.2,0.3,12.6,0.9,20,0.9c3.3,0,10.2-0.2,10.2-7.2v-5.4c0-4.6-1.4-7.8-6.6-7.8h-11.2
		c-12.8,0-14.2-7-14.2-13.8V386.3z"/>
</g>
<polygon id="XMLID_181_" style="fill:#2A7466;" points="641,364.5 618.4,464.2 600.2,464.2 "/>
<polygon id="XMLID_180_" style="fill:#1B4C43;" points="515.7,428.7 517.7,464.2 582.2,464.2 "/>
<polygon id="XMLID_179_" style="fill:#1B4C43;" points="51.9,410.6 74.5,464.2 111.1,464.2 "/>
<polygon id="XMLID_177_" style="fill:#2A7466;" points="450.5,415.9 421.6,464.2 375.1,464.2 "/>
<polygon id="XMLID_176_" style="fill:#2F9C86;" points="588.8,411 576.2,464.2 528.4,464.2 "/>
<path id="XMLID_231_" style="fill:#2F9C86;" d="M43,464.2L95.2,413l38.7,33.6l34.4-16.6c0,0,33.9,22.4,38.2,22.4
	s55.6-11.7,55.6-11.7l49.7,18.6l78.9-59.3l62.9,59.9l30.6-15.6l34.9,13.3l45.8-67.3l15.9,67.3l54.4-30.9l5.8,37.4H43z"/>
<polygon id="XMLID_311_" style="fill:#1B4C43;" points="385,464.2 390.6,400.1 458.6,464.2 "/>
<polygon id="XMLID_174_" style="fill:#1B4C43;" points="484.2,444.4 499.2,464.2 536.4,464.2 "/>
<polygon id="XMLID_173_" style="fill:#1B4C43;" points="564.9,390.3 561,464.2 582.2,464.2 "/>
<polygon id="XMLID_172_" style="fill:#1B4C43;" points="262.1,440.7 274.8,464.2 329,464.2 "/>
<polygon id="XMLID_171_" style="fill:#1B4C43;" points="168.3,430.1 183.5,464.2 225.5,464.2 "/>
<polygon id="XMLID_170_" style="fill:#1B4C43;" points="95.2,413 111.1,464.2 154.3,464.2 "/>
<polygon id="XMLID_169_" style="fill:#2F9C86;" points="51.9,410.6 43,464.2 79.8,464.2 "/>
<polygon id="XMLID_168_" style="fill:#2A7466;" points="635.2,426.7 610.8,464.2 641,464.2 "/>
<rect id="XMLID_298_" x="380.6" y="1042.2" style="fill:#43CE8B;" width="102.4" height="102.4"/>
</svg>
