<?xml version="1.0" encoding="utf-8"?>
<!-- Generator: Adobe Illustrator 19.0.0, SVG Export Plug-In . SVG Version: 6.00 Build 0)  -->
<svg version="1.1" id="header-space" xmlns="http://www.w3.org/2000/svg" xmlns:xlink="http://www.w3.org/1999/xlink" x="0px"
	 y="0px" viewBox="42 264.5 600 84.5" style="enable-background:new 42 264.5 600 84.5;" xml:space="preserve">
<style type="text/css">
	.bst0{fill:#3A3735;}
	.bst1{fill:#9B3B23;}
	.bst2{fill:#232323;}
</style>
<polygon id="XMLID_277_" class="bst0" points="42,264.5 128.8,344.5 642,264.5 "/>
<g>
	<g id="XMLID_322_">
		<path class="bst1" d="M112.4,285.9h1.1l5.3,12.8h-1.3l-1.7-4H110l-1.6,4H107L112.4,285.9z M115.5,293.7l-2.6-6.3l-2.6,6.3H115.5z"
			/>
		<path class="bst1" d="M128.2,298.6H127v-5.2c0-1.1-0.2-1.9-0.5-2.4c-0.3-0.5-0.8-0.8-1.5-0.8c-0.4,0-0.7,0.1-1.1,0.2
			c-0.4,0.1-0.7,0.3-1,0.6c-0.3,0.2-0.6,0.5-0.8,0.9c-0.2,0.3-0.4,0.7-0.5,1.1v5.7h-1.2v-9.4h1.1v2.1c0.4-0.7,0.9-1.2,1.6-1.7
			c0.7-0.4,1.5-0.6,2.3-0.6c0.5,0,1,0.1,1.3,0.3c0.4,0.2,0.6,0.5,0.9,0.8c0.2,0.3,0.4,0.8,0.5,1.3s0.1,1.1,0.1,1.7V298.6z"/>
		<path class="bst1" d="M135.3,298.2c-0.1,0-0.2,0.1-0.3,0.1c-0.1,0.1-0.3,0.1-0.5,0.2c-0.2,0.1-0.4,0.1-0.6,0.2s-0.5,0.1-0.7,0.1
			c-0.3,0-0.5,0-0.8-0.1c-0.2-0.1-0.5-0.2-0.6-0.3c-0.2-0.1-0.3-0.3-0.4-0.6c-0.1-0.2-0.2-0.5-0.2-0.8v-6.7h-1.3v-1h1.3v-3.2h1.2
			v3.2h2.2v1h-2.2v6.4c0,0.3,0.1,0.6,0.4,0.8s0.5,0.2,0.8,0.2c0.3,0,0.7-0.1,0.9-0.2c0.3-0.1,0.4-0.2,0.5-0.2L135.3,298.2z"/>
		<path class="bst1" d="M140.5,298.8c-0.7,0-1.3-0.1-1.9-0.4c-0.6-0.3-1.1-0.6-1.5-1.1s-0.7-1-1-1.5c-0.2-0.6-0.3-1.2-0.3-1.9
			c0-0.7,0.1-1.3,0.4-1.9c0.2-0.6,0.6-1.1,1-1.5c0.4-0.4,0.9-0.8,1.5-1.1c0.6-0.3,1.2-0.4,1.9-0.4c0.7,0,1.3,0.1,1.9,0.4
			c0.6,0.3,1.1,0.6,1.5,1.1c0.4,0.4,0.7,1,1,1.5c0.2,0.6,0.4,1.2,0.4,1.9c0,0.6-0.1,1.3-0.3,1.9c-0.2,0.6-0.5,1.1-1,1.5
			s-0.9,0.8-1.5,1.1C141.9,298.7,141.2,298.8,140.5,298.8z M137.1,294c0,0.5,0.1,1,0.3,1.5c0.2,0.4,0.4,0.8,0.7,1.2
			c0.3,0.3,0.7,0.6,1.1,0.8s0.9,0.3,1.3,0.3c0.5,0,0.9-0.1,1.3-0.3c0.4-0.2,0.8-0.5,1.1-0.8c0.3-0.3,0.6-0.7,0.7-1.2
			c0.2-0.5,0.3-0.9,0.3-1.5c0-0.5-0.1-1-0.3-1.5c-0.2-0.5-0.4-0.9-0.7-1.2s-0.7-0.6-1.1-0.8c-0.4-0.2-0.9-0.3-1.3-0.3
			c-0.5,0-0.9,0.1-1.3,0.3c-0.4,0.2-0.8,0.5-1.1,0.8c-0.3,0.3-0.6,0.8-0.7,1.2C137.2,293,137.1,293.5,137.1,294z M140.7,287.5
			l-0.8-0.3l1.1-1.7h1.3L140.7,287.5z"/>
		<path class="bst1" d="M155.1,298.6h-1.2v-5.2c0-1.1-0.2-1.9-0.5-2.4c-0.3-0.5-0.8-0.8-1.5-0.8c-0.4,0-0.7,0.1-1.1,0.2
			c-0.4,0.1-0.7,0.3-1,0.6c-0.3,0.2-0.6,0.5-0.8,0.9c-0.2,0.3-0.4,0.7-0.5,1.1v5.7h-1.2v-9.4h1.1v2.1c0.4-0.7,0.9-1.2,1.6-1.7
			c0.7-0.4,1.5-0.6,2.3-0.6c0.5,0,1,0.1,1.3,0.3c0.4,0.2,0.6,0.5,0.9,0.8c0.2,0.3,0.4,0.8,0.5,1.3s0.1,1.1,0.1,1.7V298.6z"/>
		<path class="bst1" d="M157.8,287.3v-1.8h1.2v1.8H157.8z M157.8,298.6v-9.4h1.2v9.4H157.8z"/>
		<path class="bst1" d="M175.6,298.6h-1.2v-5.2c0-1.1-0.2-1.9-0.5-2.4c-0.3-0.5-0.9-0.8-1.5-0.8c-0.4,0-0.7,0.1-1,0.2
			c-0.3,0.1-0.6,0.3-0.9,0.6c-0.3,0.2-0.5,0.5-0.7,0.9s-0.4,0.7-0.5,1.1v5.7H168v-5.2c0-1.1-0.2-1.9-0.5-2.4
			c-0.3-0.5-0.9-0.8-1.5-0.8c-0.7,0-1.3,0.2-1.9,0.7c-0.6,0.5-0.9,1.1-1.2,1.9v5.7h-1.2v-9.4h1.1v2.1c0.4-0.7,0.9-1.3,1.5-1.7
			c0.6-0.4,1.3-0.6,2.1-0.6c0.8,0,1.4,0.2,1.9,0.7c0.5,0.4,0.8,1,0.9,1.7c0.9-1.6,2.1-2.4,3.6-2.4c0.5,0,1,0.1,1.3,0.3
			s0.7,0.5,0.9,0.8c0.2,0.4,0.4,0.8,0.5,1.3s0.2,1.1,0.2,1.7V298.6z"/>
		<path class="bst1" d="M182.2,298.8c-0.7,0-1.3-0.1-1.9-0.4c-0.6-0.3-1.1-0.6-1.5-1.1s-0.7-1-1-1.5c-0.2-0.6-0.3-1.2-0.3-1.9
			c0-0.7,0.1-1.3,0.4-1.9c0.2-0.6,0.6-1.1,1-1.5c0.4-0.4,0.9-0.8,1.5-1.1c0.6-0.3,1.2-0.4,1.9-0.4c0.7,0,1.3,0.1,1.9,0.4
			c0.6,0.3,1.1,0.6,1.5,1.1c0.4,0.4,0.7,1,1,1.5c0.2,0.6,0.4,1.2,0.4,1.9c0,0.6-0.1,1.3-0.3,1.9c-0.2,0.6-0.5,1.1-1,1.5
			s-0.9,0.8-1.5,1.1C183.5,298.7,182.9,298.8,182.2,298.8z M178.8,294c0,0.5,0.1,1,0.3,1.5c0.2,0.4,0.4,0.8,0.7,1.2
			c0.3,0.3,0.7,0.6,1.1,0.8s0.9,0.3,1.3,0.3c0.5,0,0.9-0.1,1.3-0.3c0.4-0.2,0.8-0.5,1.1-0.8c0.3-0.3,0.6-0.7,0.7-1.2
			c0.2-0.5,0.3-0.9,0.3-1.5c0-0.5-0.1-1-0.3-1.5c-0.2-0.5-0.4-0.9-0.7-1.2s-0.7-0.6-1.1-0.8c-0.4-0.2-0.9-0.3-1.3-0.3
			c-0.5,0-0.9,0.1-1.3,0.3c-0.4,0.2-0.8,0.5-1.1,0.8c-0.3,0.3-0.6,0.8-0.7,1.2C178.9,293,178.8,293.5,178.8,294z"/>
		<path class="bst1" d="M193.8,298.6v-12.8h8.4v1.1H195v4.7h6v1h-6v5.9H193.8z"/>
		<path class="bst1" d="M207.6,298.8c-0.7,0-1.3-0.1-1.9-0.4c-0.6-0.3-1.1-0.6-1.5-1.1c-0.4-0.5-0.7-1-1-1.6
			c-0.2-0.6-0.4-1.2-0.4-1.9c0-0.7,0.1-1.3,0.4-1.9c0.2-0.6,0.6-1.1,1-1.5s0.9-0.8,1.5-1c0.6-0.3,1.2-0.4,1.9-0.4
			c0.7,0,1.3,0.1,1.9,0.4c0.6,0.3,1.1,0.6,1.5,1.1c0.4,0.4,0.7,1,1,1.5c0.2,0.6,0.3,1.2,0.3,1.8c0,0.1,0,0.2,0,0.3s0,0.2,0,0.2h-8
			c0,0.5,0.2,1,0.4,1.4c0.2,0.4,0.5,0.8,0.8,1.1c0.3,0.3,0.7,0.6,1.1,0.7c0.4,0.2,0.8,0.3,1.3,0.3c0.3,0,0.6,0,0.9-0.1
			c0.3-0.1,0.6-0.2,0.8-0.3s0.5-0.3,0.7-0.5c0.2-0.2,0.4-0.4,0.5-0.7l1.1,0.3c-0.1,0.3-0.3,0.7-0.6,0.9c-0.3,0.3-0.6,0.5-0.9,0.7
			c-0.3,0.2-0.7,0.4-1.2,0.5C208.5,298.8,208,298.8,207.6,298.8z M211,293.5c0-0.5-0.2-1-0.4-1.4c-0.2-0.4-0.4-0.8-0.8-1.1
			s-0.7-0.5-1.1-0.7c-0.4-0.2-0.8-0.3-1.3-0.3s-0.9,0.1-1.3,0.3c-0.4,0.2-0.8,0.4-1.1,0.7c-0.3,0.3-0.6,0.7-0.7,1.1
			s-0.3,0.9-0.3,1.4H211z"/>
		<path class="bst1" d="M218.8,290.3c-0.8,0-1.5,0.3-2.2,0.7c-0.6,0.4-1,1-1.3,1.8v5.8h-1.2v-9.4h1.2v2.2c0.3-0.7,0.8-1.3,1.4-1.7
			c0.6-0.4,1.2-0.6,1.9-0.6c0.1,0,0.2,0,0.2,0V290.3z"/>
		<path class="bst1" d="M225.1,290.3c-0.8,0-1.5,0.3-2.2,0.7c-0.6,0.4-1,1-1.3,1.8v5.8h-1.2v-9.4h1.2v2.2c0.3-0.7,0.8-1.3,1.4-1.7
			c0.6-0.4,1.2-0.6,1.9-0.6c0.1,0,0.2,0,0.2,0V290.3z"/>
		<path class="bst1" d="M228.9,298.8c-0.4,0-0.9-0.1-1.2-0.2s-0.7-0.4-1-0.6c-0.3-0.3-0.5-0.6-0.7-0.9c-0.2-0.4-0.2-0.7-0.2-1.1
			c0-0.4,0.1-0.8,0.3-1.1c0.2-0.3,0.5-0.6,0.8-0.9s0.8-0.4,1.2-0.6c0.5-0.1,1-0.2,1.6-0.2c0.5,0,1,0,1.5,0.1
			c0.5,0.1,0.9,0.2,1.3,0.4v-0.8c0-0.8-0.2-1.5-0.7-2c-0.5-0.5-1.1-0.7-1.9-0.7c-0.5,0-1,0.1-1.5,0.3s-1,0.5-1.5,0.8l-0.4-0.8
			c1.2-0.8,2.4-1.2,3.5-1.2c1.2,0,2.1,0.3,2.8,1c0.7,0.7,1,1.6,1,2.7v4.2c0,0.3,0.1,0.5,0.4,0.5v1.1c-0.2,0-0.4,0.1-0.5,0.1
			c-0.3,0-0.6-0.1-0.7-0.2c-0.2-0.2-0.3-0.4-0.3-0.6l0-0.7c-0.4,0.6-1,1-1.6,1.3C230.4,298.7,229.7,298.8,228.9,298.8z M229.2,297.9
			c0.6,0,1.2-0.1,1.8-0.4c0.5-0.2,0.9-0.6,1.2-1c0.1-0.1,0.2-0.2,0.2-0.4s0.1-0.2,0.1-0.4v-1.5c-0.4-0.2-0.8-0.3-1.3-0.4
			c-0.4-0.1-0.9-0.1-1.3-0.1c-0.9,0-1.6,0.2-2.1,0.5c-0.5,0.4-0.8,0.8-0.8,1.4c0,0.3,0.1,0.6,0.2,0.8c0.1,0.3,0.3,0.5,0.5,0.7
			c0.2,0.2,0.4,0.3,0.7,0.4C228.6,297.8,228.9,297.9,229.2,297.9z"/>
		<path class="bst1" d="M235.6,297.8l6.3-7.6h-6.2v-0.9h7.5v0.8l-6.3,7.6h6.3v0.9h-7.6V297.8z"/>
	</g>
	<g id="XMLID_350_">
		<path class="bst2" d="M120,312.9h1.2l-4,9.4h-1l-2-4.8l-2,4.8h-1l-4-9.4h1.2l3.4,8.1l1.8-4.3l-1.6-3.8h1l1.2,3.1l1.2-3.1h1
			l-1.6,3.8l1.8,4.3L120,312.9z"/>
		<path class="bst2" d="M126.5,322.5c-0.7,0-1.3-0.1-1.9-0.4c-0.6-0.3-1.1-0.6-1.5-1.1c-0.4-0.5-0.7-1-1-1.6
			c-0.2-0.6-0.4-1.2-0.4-1.9c0-0.7,0.1-1.3,0.4-1.9c0.2-0.6,0.6-1.1,1-1.5s0.9-0.8,1.5-1c0.6-0.3,1.2-0.4,1.9-0.4
			c0.7,0,1.3,0.1,1.9,0.4c0.6,0.3,1.1,0.6,1.5,1.1c0.4,0.4,0.7,1,1,1.5c0.2,0.6,0.3,1.2,0.3,1.8c0,0.1,0,0.2,0,0.3s0,0.2,0,0.2h-8
			c0,0.5,0.2,1,0.4,1.4c0.2,0.4,0.5,0.8,0.8,1.1c0.3,0.3,0.7,0.6,1.1,0.7c0.4,0.2,0.8,0.3,1.3,0.3c0.3,0,0.6,0,0.9-0.1
			c0.3-0.1,0.6-0.2,0.8-0.3s0.5-0.3,0.7-0.5c0.2-0.2,0.4-0.4,0.5-0.7l1.1,0.3c-0.1,0.3-0.3,0.7-0.6,0.9c-0.3,0.3-0.6,0.5-0.9,0.7
			c-0.3,0.2-0.7,0.4-1.2,0.5C127.4,322.4,127,322.5,126.5,322.5z M130,317.1c0-0.5-0.2-1-0.4-1.4c-0.2-0.4-0.4-0.8-0.8-1.1
			s-0.7-0.5-1.1-0.7c-0.4-0.2-0.8-0.3-1.3-0.3s-0.9,0.1-1.3,0.3c-0.4,0.2-0.8,0.4-1.1,0.7c-0.3,0.3-0.6,0.7-0.7,1.1
			s-0.3,0.9-0.3,1.4H130z"/>
		<path class="bst2" d="M137.6,322.5c-0.7,0-1.4-0.2-2-0.6s-1.1-0.9-1.4-1.4v1.8H133v-13.1h1.2v5.7c0.4-0.6,0.9-1.1,1.5-1.5
			c0.6-0.4,1.3-0.6,2.1-0.6c0.7,0,1.3,0.1,1.8,0.4c0.5,0.3,1,0.6,1.3,1.1c0.4,0.5,0.6,1,0.8,1.6c0.2,0.6,0.3,1.2,0.3,1.8
			c0,0.7-0.1,1.3-0.3,1.9s-0.5,1.1-0.9,1.5s-0.9,0.8-1.4,1S138.3,322.5,137.6,322.5z M137.3,321.4c0.5,0,1-0.1,1.4-0.3
			c0.4-0.2,0.8-0.5,1.1-0.8s0.5-0.8,0.7-1.2c0.2-0.4,0.3-0.9,0.3-1.4c0-0.5-0.1-1-0.2-1.4s-0.4-0.9-0.7-1.2s-0.6-0.6-1.1-0.8
			c-0.4-0.2-0.9-0.3-1.4-0.3c-0.4,0-0.7,0.1-1,0.2c-0.3,0.1-0.6,0.3-0.9,0.5c-0.3,0.2-0.5,0.5-0.7,0.7c-0.2,0.3-0.4,0.6-0.5,0.9v2.9
			c0,0.3,0.2,0.6,0.4,0.9c0.2,0.3,0.5,0.5,0.8,0.7s0.6,0.4,1,0.5C136.7,321.3,137,321.4,137.3,321.4z"/>
		<path class="bst2" d="M144.3,323.8l0.3-1.5h-0.4v-1.7h1.2v1.7l-0.4,1.5H144.3z"/>
		<path class="bst2" d="M156.6,322.5c-0.6,0-1.2-0.1-1.8-0.4s-1-0.6-1.4-1.1s-0.7-1-0.9-1.5c-0.2-0.6-0.3-1.2-0.3-1.8
			c0-0.7,0.1-1.3,0.3-1.9c0.2-0.6,0.5-1.1,0.9-1.6c0.4-0.4,0.8-0.8,1.4-1.1c0.5-0.3,1.1-0.4,1.7-0.4c0.8,0,1.5,0.2,2.1,0.6
			c0.6,0.4,1.1,0.9,1.4,1.5v-5.7h1.2v11.6c0,0.3,0.1,0.5,0.4,0.5v1.1c-0.2,0-0.3,0.1-0.4,0.1c-0.3,0-0.5-0.1-0.8-0.3
			c-0.2-0.2-0.3-0.4-0.3-0.7v-0.9c-0.4,0.6-0.9,1.1-1.5,1.5C158,322.3,157.3,322.5,156.6,322.5z M156.9,321.4c0.3,0,0.6-0.1,1-0.2
			c0.3-0.1,0.7-0.3,1-0.5c0.3-0.2,0.6-0.5,0.8-0.7c0.2-0.3,0.3-0.6,0.4-0.9v-2.9c-0.1-0.3-0.3-0.6-0.5-0.9c-0.2-0.3-0.5-0.5-0.8-0.7
			c-0.3-0.2-0.6-0.4-0.9-0.5s-0.7-0.2-1-0.2c-0.5,0-1,0.1-1.4,0.3c-0.4,0.2-0.8,0.5-1.1,0.9c-0.3,0.4-0.5,0.8-0.7,1.2
			s-0.2,0.9-0.2,1.4c0,0.5,0.1,1,0.3,1.4c0.2,0.5,0.4,0.9,0.7,1.2c0.3,0.3,0.7,0.6,1.1,0.8C156,321.3,156.4,321.4,156.9,321.4z"/>
		<path class="bst2" d="M168,322.5c-0.7,0-1.3-0.1-1.9-0.4c-0.6-0.3-1.1-0.6-1.5-1.1c-0.4-0.5-0.7-1-1-1.6c-0.2-0.6-0.4-1.2-0.4-1.9
			c0-0.7,0.1-1.3,0.4-1.9c0.2-0.6,0.6-1.1,1-1.5s0.9-0.8,1.5-1c0.6-0.3,1.2-0.4,1.9-0.4c0.7,0,1.3,0.1,1.9,0.4
			c0.6,0.3,1.1,0.6,1.5,1.1c0.4,0.4,0.7,1,1,1.5c0.2,0.6,0.3,1.2,0.3,1.8c0,0.1,0,0.2,0,0.3s0,0.2,0,0.2h-8c0,0.5,0.2,1,0.4,1.4
			c0.2,0.4,0.5,0.8,0.8,1.1c0.3,0.3,0.7,0.6,1.1,0.7c0.4,0.2,0.8,0.3,1.3,0.3c0.3,0,0.6,0,0.9-0.1c0.3-0.1,0.6-0.2,0.8-0.3
			s0.5-0.3,0.7-0.5c0.2-0.2,0.4-0.4,0.5-0.7l1.1,0.3c-0.1,0.3-0.3,0.7-0.6,0.9c-0.3,0.3-0.6,0.5-0.9,0.7c-0.3,0.2-0.7,0.4-1.2,0.5
			C168.9,322.4,168.5,322.5,168,322.5z M171.5,317.1c0-0.5-0.2-1-0.4-1.4c-0.2-0.4-0.4-0.8-0.8-1.1s-0.7-0.5-1.1-0.7
			c-0.4-0.2-0.8-0.3-1.3-0.3s-0.9,0.1-1.3,0.3c-0.4,0.2-0.8,0.4-1.1,0.7c-0.3,0.3-0.6,0.7-0.7,1.1s-0.3,0.9-0.3,1.4H171.5z"/>
		<path class="bst2" d="M177.7,322.5c-0.7,0-1.4-0.1-2.1-0.4c-0.7-0.2-1.3-0.6-1.8-1l0.6-0.8c0.5,0.4,1.1,0.8,1.6,1
			c0.5,0.2,1.1,0.3,1.8,0.3c0.8,0,1.4-0.2,1.8-0.5c0.5-0.3,0.7-0.7,0.7-1.3c0-0.3-0.1-0.5-0.2-0.7c-0.1-0.2-0.3-0.3-0.5-0.5
			c-0.2-0.1-0.5-0.2-0.9-0.4s-0.8-0.2-1.2-0.3c-0.5-0.1-1-0.3-1.4-0.4c-0.4-0.1-0.7-0.3-1-0.4c-0.3-0.2-0.5-0.4-0.6-0.6
			c-0.1-0.2-0.2-0.6-0.2-0.9c0-0.5,0.1-0.9,0.3-1.2s0.4-0.7,0.8-0.9s0.7-0.4,1.1-0.5c0.4-0.1,0.9-0.2,1.4-0.2c0.7,0,1.4,0.1,2,0.4
			s1.1,0.5,1.4,0.9l-0.6,0.7c-0.3-0.4-0.8-0.6-1.3-0.8s-1-0.3-1.6-0.3c-0.3,0-0.6,0-0.9,0.1s-0.5,0.2-0.7,0.3s-0.4,0.3-0.5,0.5
			c-0.1,0.2-0.2,0.5-0.2,0.8c0,0.3,0,0.5,0.1,0.6c0.1,0.2,0.2,0.3,0.4,0.4c0.2,0.1,0.4,0.2,0.7,0.3c0.3,0.1,0.7,0.2,1.1,0.3
			c0.6,0.1,1.1,0.3,1.6,0.4c0.5,0.1,0.8,0.3,1.1,0.5s0.5,0.4,0.7,0.7c0.2,0.3,0.2,0.6,0.2,1c0,0.9-0.3,1.5-1,2.1
			C179.7,322.2,178.8,322.5,177.7,322.5z"/>
		<path class="bst2" d="M183.3,311v-1.8h1.2v1.8H183.3z M183.3,322.3v-9.4h1.2v9.4H183.3z"/>
		<path class="bst2" d="M191,322.4c-0.6,0-1.2-0.1-1.8-0.4s-1-0.6-1.4-1.1c-0.4-0.4-0.7-1-0.9-1.5c-0.2-0.6-0.3-1.2-0.3-1.8
			c0-0.6,0.1-1.3,0.3-1.9c0.2-0.6,0.5-1.1,0.9-1.6c0.4-0.4,0.8-0.8,1.4-1.1c0.5-0.3,1.1-0.4,1.8-0.4c0.8,0,1.5,0.2,2.1,0.6
			c0.6,0.4,1.1,0.9,1.5,1.5v-2h1.1v9.4c0,0.6-0.1,1.2-0.4,1.7s-0.6,0.9-1,1.3s-0.9,0.6-1.5,0.8c-0.6,0.2-1.1,0.3-1.8,0.3
			c-1.1,0-2-0.2-2.6-0.6c-0.7-0.4-1.2-0.9-1.6-1.5l0.8-0.6c0.4,0.6,0.9,1,1.5,1.3c0.6,0.3,1.3,0.4,2,0.4c0.5,0,0.9-0.1,1.3-0.2
			c0.4-0.1,0.8-0.3,1.1-0.6c0.3-0.2,0.5-0.6,0.7-0.9c0.2-0.4,0.3-0.8,0.3-1.3v-1.9c-0.4,0.6-0.9,1.1-1.5,1.4
			C192.3,322.3,191.7,322.4,191,322.4z M191.3,321.4c0.4,0,0.7-0.1,1.1-0.2c0.3-0.1,0.7-0.3,0.9-0.5c0.3-0.2,0.5-0.5,0.7-0.7
			c0.2-0.3,0.3-0.6,0.4-0.8v-2.9c-0.1-0.3-0.3-0.6-0.5-0.9s-0.5-0.5-0.8-0.7c-0.3-0.2-0.6-0.4-0.9-0.5c-0.3-0.1-0.7-0.2-1-0.2
			c-0.5,0-1,0.1-1.4,0.3s-0.8,0.5-1.1,0.9c-0.3,0.4-0.5,0.8-0.7,1.2c-0.2,0.5-0.2,0.9-0.2,1.4c0,0.5,0.1,1,0.3,1.4
			c0.2,0.5,0.4,0.9,0.7,1.2c0.3,0.3,0.7,0.6,1.1,0.8C190.4,321.3,190.8,321.4,191.3,321.4z"/>
		<path class="bst2" d="M206.2,322.3H205v-5.2c0-1.1-0.2-1.9-0.5-2.4c-0.3-0.5-0.8-0.8-1.5-0.8c-0.4,0-0.7,0.1-1.1,0.2
			c-0.4,0.1-0.7,0.3-1,0.6c-0.3,0.2-0.6,0.5-0.8,0.9c-0.2,0.3-0.4,0.7-0.5,1.1v5.7h-1.2v-9.4h1.1v2.1c0.4-0.7,0.9-1.2,1.6-1.7
			c0.7-0.4,1.5-0.6,2.3-0.6c0.5,0,1,0.1,1.3,0.3c0.4,0.2,0.6,0.5,0.9,0.8c0.2,0.3,0.4,0.8,0.5,1.3s0.1,1.1,0.1,1.7V322.3z"/>
		<path class="bst2" d="M209.1,323.8l0.3-1.5h-0.4v-1.7h1.2v1.7l-0.4,1.5H209.1z"/>
		<path class="bst2" d="M219.9,322.5c-0.4,0-0.9-0.1-1.2-0.2s-0.7-0.4-1-0.6c-0.3-0.3-0.5-0.6-0.7-0.9c-0.2-0.4-0.2-0.7-0.2-1.1
			c0-0.4,0.1-0.8,0.3-1.1c0.2-0.3,0.5-0.6,0.8-0.9s0.8-0.4,1.2-0.6c0.5-0.1,1-0.2,1.6-0.2c0.5,0,1,0,1.5,0.1
			c0.5,0.1,0.9,0.2,1.3,0.4v-0.8c0-0.8-0.2-1.5-0.7-2c-0.5-0.5-1.1-0.7-1.9-0.7c-0.5,0-1,0.1-1.5,0.3s-1,0.5-1.5,0.8l-0.4-0.8
			c1.2-0.8,2.4-1.2,3.5-1.2c1.2,0,2.1,0.3,2.8,1c0.7,0.7,1,1.6,1,2.7v4.2c0,0.3,0.1,0.5,0.4,0.5v1.1c-0.2,0-0.4,0.1-0.5,0.1
			c-0.3,0-0.6-0.1-0.7-0.2c-0.2-0.2-0.3-0.4-0.3-0.6l0-0.7c-0.4,0.6-1,1-1.6,1.3C221.3,322.3,220.6,322.5,219.9,322.5z M220.1,321.6
			c0.6,0,1.2-0.1,1.8-0.4c0.5-0.2,0.9-0.6,1.2-1c0.1-0.1,0.2-0.2,0.2-0.4s0.1-0.2,0.1-0.4V318c-0.4-0.2-0.8-0.3-1.3-0.4
			c-0.4-0.1-0.9-0.1-1.3-0.1c-0.9,0-1.6,0.2-2.1,0.5c-0.5,0.4-0.8,0.8-0.8,1.4c0,0.3,0.1,0.6,0.2,0.8c0.1,0.3,0.3,0.5,0.5,0.7
			c0.2,0.2,0.4,0.3,0.7,0.4C219.5,321.5,219.8,321.6,220.1,321.6z"/>
		<path class="bst2" d="M232,314c-0.8,0-1.5,0.3-2.2,0.7c-0.6,0.4-1,1-1.3,1.8v5.8h-1.2v-9.4h1.2v2.2c0.3-0.7,0.8-1.3,1.4-1.7
			c0.6-0.4,1.2-0.6,1.9-0.6c0.1,0,0.2,0,0.2,0V314z"/>
		<path class="bst2" d="M238.1,321.9c-0.1,0-0.2,0.1-0.3,0.1c-0.1,0.1-0.3,0.1-0.5,0.2c-0.2,0.1-0.4,0.1-0.6,0.2s-0.5,0.1-0.7,0.1
			c-0.3,0-0.5,0-0.8-0.1c-0.2-0.1-0.5-0.2-0.6-0.3c-0.2-0.1-0.3-0.3-0.4-0.6c-0.1-0.2-0.2-0.5-0.2-0.8v-6.7h-1.3v-1h1.3v-3.2h1.2
			v3.2h2.2v1h-2.2v6.4c0,0.3,0.1,0.6,0.4,0.8s0.5,0.2,0.8,0.2c0.3,0,0.7-0.1,0.9-0.2c0.3-0.1,0.4-0.2,0.5-0.2L238.1,321.9z"/>
	</g>
</g>
</svg>
