<?xml version="1.0" encoding="utf-8"?>
<!-- Generator: Adobe Illustrator 19.0.0, SVG Export Plug-In . SVG Version: 6.00 Build 0)  -->
<svg version="1.1" id="header-space" xmlns="http://www.w3.org/2000/svg" xmlns:xlink="http://www.w3.org/1999/xlink" x="0px"
	 y="0px" viewBox="42 264.5 600 200" style="enable-background:new 42 264.5 600 200;" xml:space="preserve">
<style type="text/css">
	.cst0{fill:#FF6700;}
	.cst1{fill:none;stroke:#FF6700;stroke-miterlimit:10;}
	.cst2{fill:#DD4E10;}
	.cst3{fill:#FFA466;}
	.cst4{fill:#20B998;}
	.cst5{fill:#38A495;}
	.cst5{fill:#2B7C73;}
	.cst7{fill:#2A7C70;}
	.cst8{fill:#1D544C;}
	.cst9{fill:#9B3B23;}
	.ccst10{fill:#1D544E;}
	.ccst11{fill:#08A4AC;}
	.ccst12{fill:#056E72;}
	.ccst13{fill:#232323;}
	.cst14{fill:#2B2928;}
	.cst15{fill:#2AF7CB;}
	.cst16{fill:#7FFAE0;}
	.cst17{fill:none;stroke:#329DA0;stroke-miterlimit:10;}
</style>
<g id="XMLID_81_">
	<circle id="XMLID_83_" class="cst0" cx="537" cy="351.3" r="34.7"/>
	<circle id="XMLID_82_" class="cst1" cx="537" cy="351.3" r="50.6"/>
	<path id="XMLID_59_" class="cst2" d="M512.5,375.9c-13.5-13.5-13.5-35.5,0-49.1c13.5-13.5,35.5-13.5,49.1,0"/>
</g>
<path id="XMLID_248_" class="cst3" d="M451.6,327.4c-11.4,11.4-29.8,11.4-41.2,0s-11.4-29.8,0-41.2"/>
<polygon id="XMLID_88_" class="cst4" points="42,411.5 54,377.1 67.8,419.2 88,394.9 125.3,427.5 172.5,406.6 204.2,432 254,394.9
	282.1,432 342,419.2 398.5,449.3 450.8,416.1 484.6,449.3 490.8,426 505,443.9 534.5,426 563.5,449.3 611.4,403 619.9,419.2
	642,364.5 642,464.5 42,464.5 "/>
<polygon id="XMLID_87_" class="cst5" points="611.4,403 601,464.5 549.6,464.5 "/>
<polygon id="XMLID_86_" class="cst6" points="54,377.1 73.7,464.5 42,464.5 42,411.5 "/>
<polygon id="XMLID_85_" class="cst7" points="254,394.9 207.5,464.5 161,464.5 "/>
<polygon id="XMLID_84_" class="cst7" points="342,419.2 329,464.5 235.2,464.5 282.1,432 "/>
<polygon id="XMLID_79_" class="cst6" points="88,394.9 89,464.5 42,464.5 67.8,419.2 "/>
<polygon id="XMLID_78_" class="cst7" points="172.5,406.6 125.3,464.5 89,464.5 122.3,429 "/>
<path id="XMLID_77_" class="cst7" d="M642,464.5l-52.4-53.4l-38.8,35.1l-34.5-17.3c0,0-34,23.4-38.3,23.4S422.2,440,422.2,440
	l-49.9,19.5l-79.1-61.9L230,460.1l-30.7-16.2l-35.1,13.8l-45.9-70.3l-16,70.3l-51.3-47l-9,53.8H642z"/>
<polygon id="XMLID_76_" class="cst6" points="642,364.5 619.3,464.5 601,464.5 "/>
<polygon id="XMLID_73_" class="cst8" points="118.3,387.4 143,464.5 167.8,464.5 "/>
<polygon id="XMLID_72_" class="cst8" points="293.2,397.6 311.7,464.5 377.7,464.5 "/>
<polygon id="XMLID_75_" class="cst8" points="516.2,429 518.2,464.5 583,464.5 "/>
<g id="XMLID_60_">
	<path id="XMLID_2_" class="cst9" d="M75.3,354.4h9.1v41.9h43.1v-41.9h9.1v90h-9.1v-39H84.4v39h-9.1
		C75.3,444.4,75.3,354.4,75.3,354.4z"/>
	<path id="XMLID_4_" class="cst9" d="M153.8,370.4c0-12.1,7.3-16.4,15.5-16l38.9,2v7.1h-38.9c-6.4,0-6.4,3.6-6.4,6.9V395l40.3,1.2
		v7.3l-40.3,1.2v24.6c0.1,6.5,4.1,6.4,7.6,6.4h37.6v7l-37.6,2.1c-8.1,0.5-16.7-1.6-16.7-15.5V370.4z"/>
	<path id="XMLID_6_" class="cst9" d="M223.6,354.4h9.1v74.5c0,6.5,4.1,6.4,7.6,6.4h37.6v9.1h-37.6c-8.1,0-16.7-1.6-16.7-15.5
		L223.6,354.4L223.6,354.4z"/>
	<path id="XMLID_8_" class="cst9" d="M292.1,354.4h9.1v74.5c0,6.5,4.1,6.4,7.6,6.4h37.6v9.1h-37.6c-8.1,0-16.7-1.6-16.7-15.5
		L292.1,354.4L292.1,354.4z"/>
	<path id="XMLID_10_" class="cst9" d="M390,353.8c21.3,0,34.7,4.1,34.7,46.2c0,39.7-12.5,44.9-34.7,44.9c-22.1,0-34.9-3.9-34.9-44.9
		C355,357.8,369.3,353.8,390,353.8z M390,435.8c19.2,0,25.6-5.2,25.6-35.8c0-36.8-8.9-37.1-25.6-37.1c-16.4,0-25.8,0.4-25.8,37.1
		C364.1,431.6,370.5,435.8,390,435.8z"/>
</g>
<polygon id="XMLID_74_" class="ccst10" points="51,410.7 73.7,464.5 110.3,464.5 "/>
<polygon id="XMLID_71_" class="cst7" points="450.8,416.1 421.8,464.5 375.2,464.5 "/>
<polygon id="XMLID_70_" class="cst5" points="589.6,411.1 577,464.5 529,464.5 "/>
<path id="XMLID_69_" class="ccst11" d="M42,464.5l52.4-51.3l38.8,33.7l34.5-16.6c0,0,34,22.5,38.3,22.5s55.8-11.8,55.8-11.8l49.8,18.7
	l79.1-59.5l63.2,60.1l30.7-15.6l35.1,13.3l45.9-67.5l16,67.5l54.6-31l5.8,37.5H42z"/>
<polygon id="XMLID_68_" class="ccst12" points="385.1,464.5 390.8,400.2 459,464.5 "/>
<polygon id="XMLID_67_" class="ccst12" points="484.7,444.6 499.7,464.5 537,464.5 "/>
<polygon id="XMLID_66_" class="ccst12" points="565.7,390.4 561.7,464.5 583,464.5 "/>
<polygon id="XMLID_65_" class="ccst12" points="261.8,441 274.5,464.5 329,464.5 "/>
<polygon id="XMLID_64_" class="ccst12" points="167.8,430.3 183,464.5 225.1,464.5 "/>
<polygon id="XMLID_63_" class="ccst12" points="94.4,413.2 110.3,464.5 153.7,464.5 "/>
<polygon id="XMLID_62_" class="ccst12" points="51,410.7 42,464.5 79,464.5 "/>
<polygon id="XMLID_44_" class="ccst12" points="636.2,427 611.7,464.5 642,464.5 "/>
<polygon id="shadowlight" class="ccst11" points="306.8,250 434.2,186.4 398.7,124.8 "/>
<polygon id="shadowdark" class="ccst12" points="306.8,250 406.2,137.9 398.7,124.8 "/>
<g id="XMLID_28_">
	<polygon id="XMLID_12_" class="ccst13" points="363.2,186.4 398.7,124.8 434.2,186.4 	"/>
	<polygon id="XMLID_26_" class="cst14" points="363.2,186.4 398.7,124.8 398.7,186.4 	"/>
</g>
<polygon id="XMLID_3_" class="cst15" points="372.2,181 398.7,135.1 425.2,181 "/>
<polygon id="XMLID_1_" class="cst4" points="387.7,171.9 398.7,152.8 409.7,171.9 "/>
<polygon id="XMLID_11_" class="cst16" points="398.7,171.9 398.7,152.8 409.7,171.9 "/>
<line id="stroke3" class="cst17" x1="398.7" y1="165.9" x2="431.2" y2="147.3"/>
<line id="stroke2" class="cst17" x1="398.7" y1="165.9" x2="366.3" y2="147.3"/>
<line id="stroke1" class="cst17" x1="398.7" y1="165.9" x2="398.7" y2="203.3"/>
<circle id="half1light" class="cst15" cx="434.2" cy="145.1" r="4.8"/>
<circle id="half2light" class="cst15" cx="366.3" cy="145.1" r="4.8"/>
<circle id="half3light" class="cst15" cx="398.7" cy="203.3" r="4.8"/>
<path id="half2" class="cst4" d="M366.3,140.3c-2.6,0-4.8,2.1-4.8,4.8c0,2.7,2.1,4.8,4.8,4.8"/>
<path id="half3" class="cst4" d="M398.7,198.5c-2.6,0-4.8,2.1-4.8,4.8c0,2.6,2.1,4.8,4.8,4.8"/>
<path id="half1" class="cst4" d="M434.2,140.3c-2.6,0-4.8,2.1-4.8,4.8c0,2.7,2.1,4.8,4.8,4.8"/>
</svg>
