<?xml version="1.0" encoding="utf-8"?>
<!-- Generator: Adobe Illustrator 19.2.1, SVG Export Plug-In . SVG Version: 6.00 Build 0)  -->
<svg version="1.1" id="header-space" xmlns="http://www.w3.org/2000/svg" xmlns:xlink="http://www.w3.org/1999/xlink" x="0px"
	 y="0px" viewBox="0 0 600 200" enable-background="new 0 0 600 200" xml:space="preserve">
<polygon id="XMLID_683_" fill="#0F5546" points="0,200 0,100.5 33.4,133.2 39.9,120.7 67.2,134.4 100,101 133.5,134.6 149.6,101.8 
	160.2,121.6 200,101.8 232.9,133.6 249.1,101.4 265.6,134 300,101.1 332.8,134.4 348.9,104.2 365.7,134.4 400.8,101.1 432.8,134.4 
	449.4,100.5 466.9,134.4 500.1,101 533.1,134.4 599.7,101.1 600,200.2 "/>
<polygon id="XMLID_682_" fill="#168068" points="0,200 33.4,133.2 49.7,151.2 67.2,134.4 79.9,161.1 100.3,150.4 133.4,167.9 
	167,134.4 199.1,200 232.9,133.6 249.1,151.2 265.6,134 279.2,161.1 299.6,150.4 332.2,167.4 365.7,134.4 400.7,200 432.8,134.4 
	449.8,150.2 466.9,134.4 479.6,161.1 500.5,150.4 532.6,167.4 566.7,134.4 599.9,200 "/>
<polygon id="XMLID_678_" fill="#1DAA8B" points="1.1,199.7 49.7,151.2 100.2,199.8 133.5,134.6 200.2,199.7 249.1,151.2 
	299.3,199.8 332.8,134.4 400.7,200 449.8,150.2 500.9,199.8 500.9,199.8 533.1,134.4 599.9,200 "/>
<polygon id="XMLID_677_" fill="#4ABBA2" points="0,200 65.4,166.4 100.2,200 133.9,166 199.7,199.2 264.3,165.9 298.5,198 
	334,165.4 400.7,200 465.4,165.6 500.9,200 534.4,166.8 600,200 "/>
<a id="sun" xlink:href="#backtop" >
	<circle id="sunin" fill="#E9A30C" cx="484.5" cy="59.3" r="24.1"/>
	<circle id="sunout" fill="none" stroke="#E9A30C" stroke-miterlimit="10" cx="484.5" cy="59.3" r="29.1"/>
	<path id="suntop" fill="#2B2928" d="M484,42.2l-15.9,27.6h31.9L484,42.2z M484,49.7l9.8,16.9h-19.5L484,49.7z"/>
</a>
</svg>
