<?xml version="1.0" encoding="utf-8"?>
<!-- Generator: Adobe Illustrator 19.0.0, SVG Export Plug-In . SVG Version: 6.00 Build 0)  -->
<svg version="1.1" id="header-space" xmlns="http://www.w3.org/2000/svg" xmlns:xlink="http://www.w3.org/1999/xlink" x="0px"
	 y="0px" viewBox="42 264.5 600 200" style="enable-background:new 42 264.5 600 200;" xml:space="preserve">
<g id="XMLID_324_">
	<circle id="XMLID_345_" style="&st0;" cx="343" cy="324.3" r="31.6"/>
	<circle id="XMLID_343_" style="&st1;" cx="343" cy="324.3" r="46.1"/>
	<path id="XMLID_328_" style="&st2;" d="M343,355.9c-17.4,0-31.6-14.1-31.6-31.6s14.1-31.6,31.6-31.6"/>
</g>
<polygon id="XMLID_322_" style="&st3;" points="43.9,335.8 55.9,301.5 69.6,343.4 89.8,319.3 126.9,351.7 174,330.9 205.6,356.2 
	255.2,319.3 283.3,356.2 343,343.4 399.3,373.5 451.4,340.4 485.1,373.5 491.3,350.2 505.4,368.1 534.9,350.2 563.8,373.5 
	611.5,327.3 620,343.4 642,289 642,388.6 43.9,388.6 "/>
<polygon id="XMLID_321_" style="&st4;" points="611.5,327.3 601.1,388.6 549.9,388.6 "/>
<polygon id="XMLID_320_" style="&st5;" points="55.9,301.5 75.5,388.6 43.9,388.6 43.9,335.8 "/>
<path id="XMLID_316_" style="&st6;" d="M535.2,267.9c11.3,11.3,11.3,29.7,0,41.1s-29.7,11.3-41.1,0"/>
<polygon id="XMLID_288_" style="&st5;" points="255.2,319.3 208.9,388.6 162.5,388.6 "/>
<polygon id="XMLID_249_" style="&st5;" points="343,343.4 330,388.6 236.5,388.6 283.3,356.2 "/>
<polygon id="XMLID_232_" style="&st5;" points="89.8,319.3 90.8,388.6 43.9,388.6 69.6,343.4 "/>
<path id="XMLID_248_" style="&st7;" d="M165.9,309c-11.3,11.3-29.7,11.3-41.1,0s-11.3-29.7,0-41.1"/>
<polygon id="XMLID_208_" style="&st5;" points="174,330.9 126.9,388.6 90.8,388.6 124,353.2 "/>
<path id="XMLID_217_" style="&st5;" d="M642,388.6l-52.3-53.2l-38.7,35l-34.4-17.2c0,0-33.9,23.3-38.2,23.3s-55.6-12.2-55.6-12.2
	l-49.7,19.4L294.3,322l-62.9,62.3l-30.6-16.2l-34.9,13.8l-45.8-70l-15.9,70L52.9,335l-9,53.6H642z"/>
<polygon id="XMLID_181_" style="&st5;" points="642,289 619.4,388.6 601.1,388.6 "/>
<polygon id="XMLID_180_" style="&st3;" points="516.6,353.2 518.6,388.6 583.2,388.6 "/>
<polygon id="XMLID_179_" style="&st3;" points="52.9,335 75.5,388.6 112,388.6 "/>
<polygon id="XMLID_178_" style="&st3;" points="294.3,322 312.7,388.6 378.5,388.6 "/>
<polygon id="XMLID_177_" style="&st5;" points="451.4,340.4 422.5,388.6 376.1,388.6 "/>
<polygon id="XMLID_176_" style="&st4;" points="589.7,335.4 577.2,388.6 529.4,388.6 "/>
<polygon id="XMLID_175_" style="&st3;" points="120,311.8 144.6,388.6 169.3,388.6 "/>
<path id="XMLID_231_" style="&st4;" d="M43.9,388.6l52.3-51.1l38.7,33.6l34.4-16.6c0,0,33.9,22.4,38.2,22.4s55.6-11.7,55.6-11.7
	l49.7,18.6l78.9-59.3l62.9,59.9l30.6-15.6l34.9,13.3l45.8-67.3l15.9,67.3l54.4-30.9l5.8,37.4H43.9z"/>
<polygon id="XMLID_311_" style="&st3;" points="385.9,388.6 391.6,324.5 459.6,388.6 "/>
<polygon id="XMLID_174_" style="&st3;" points="485.2,368.9 500.1,388.6 537.3,388.6 "/>
<polygon id="XMLID_173_" style="&st3;" points="565.9,314.8 561.9,388.6 583.2,388.6 "/>
<polygon id="XMLID_172_" style="&st3;" points="263.1,365.2 275.7,388.6 330,388.6 "/>
<polygon id="XMLID_171_" style="&st3;" points="169.3,354.6 184.5,388.6 226.5,388.6 "/>
<polygon id="XMLID_170_" style="&st3;" points="96.2,337.5 112,388.6 155.2,388.6 "/>
<polygon id="XMLID_169_" style="&st4;" points="52.9,335 43.9,388.6 80.8,388.6 "/>
<polygon id="XMLID_168_" style="&st5;" points="636.2,351.2 611.8,388.6 642,388.6 "/>
<path id="XMLID_8_" style="&st4;" d="M42,388.6l52.3,51.1l38.7-33.6l34.4,16.6c0,0,33.9-22.4,38.2-22.4c4.2,0,55.6,11.7,55.6,11.7
	l49.7-18.6l78.9,59.3l62.9-59.9l30.6,15.6l34.9-13.3l45.8,67.3l15.9-67.3l54.4,30.9l5.8-37.4H42z"/>
<polygon id="XMLID_7_" style="&st3;" points="385.9,388.6 391.6,452.7 459.6,388.6 "/>
<polygon id="XMLID_6_" style="&st3;" points="485.2,408.4 500.1,388.6 537.3,388.6 "/>
<polygon id="XMLID_5_" style="&st3;" points="565.9,462.5 561.9,388.6 583.2,388.6 "/>
<polygon id="XMLID_4_" style="&st3;" points="263.1,412.1 275.7,388.6 330,388.6 "/>
<polygon id="XMLID_3_" style="&st3;" points="169.3,422.7 184.5,388.6 226.5,388.6 "/>
<polygon id="XMLID_2_" style="&st3;" points="96.2,439.8 112,388.6 155.2,388.6 "/>
<polygon id="XMLID_1_" style="&st5;" points="636.2,426.1 611.8,388.6 642,388.6 "/>
<rect id="XMLID_298_" x="380.6" y="1042.2" style="&st8;" width="102.4" height="102.4"/>
</svg>
