<?xml version="1.0" encoding="utf-8"?>
<!-- Generator: Adobe Illustrator 19.0.0, SVG Export Plug-In . SVG Version: 6.00 Build 0)  -->
<svg version="1.1" id="header-space" xmlns="http://www.w3.org/2000/svg" xmlns:xlink="http://www.w3.org/1999/xlink" x="0px"
	 y="0px" viewBox="0 201 600 200" style="enable-background:new 0 201 600 200;" xml:space="preserve">
<path id="XMLID_217_" style="fill:#2A7466;" d="M599,400.9l-52.2-53.2l-38.7,35l-34.4-17.2c0,0-33.9,23.3-38.2,23.3
	s-55.6-12.2-55.6-12.2L330.2,396l-78.9-61.7l-62.9,62.3l-30.6-16.2l-34.9,13.8l-45.8-70l-15.9,70L10,347.4L1,401L599,400.9
	L599,400.9z"/>
<g id="XMLID_324_">
	<circle id="XMLID_345_" style="fill:#D9F5E8;" cx="495.5" cy="319.3" r="24.9"/>
	<circle id="XMLID_343_" style="fill:none;stroke:#43CE8B;stroke-miterlimit:10;" cx="495.5" cy="319.3" r="36.4"/>
	<path id="XMLID_328_" style="fill:#B4EBD1;" d="M495.5,344.2c-13.8,0-24.9-11.2-24.9-24.9s11.2-24.9,24.9-24.9"/>
</g>
<polygon id="XMLID_322_" style="fill:#1B4C43;" points="1,348 12.9,313.7 26.7,355.7 46.8,331.5 84,363.9 131,343.1 162.6,368.4 
	212.2,331.5 240.3,368.4 300,355.7 356.3,385.7 408.5,352.6 442.2,385.7 448.3,362.4 462.4,380.3 491.9,362.4 520.8,385.7 
	568.5,339.5 577,355.7 599,301.2 599,400.9 1,400.9 "/>
<polygon id="XMLID_321_" style="fill:#2F9C86;" points="568.5,339.5 558.2,400.9 506.9,400.9 "/>
<polygon id="XMLID_320_" style="fill:#2A7466;" points="12.9,313.7 32.5,400.9 1,400.9 1,348 "/>
<path id="XMLID_316_" style="fill:#8EE2B9;" d="M579.2,207.2c7.4,7.4,7.4,19.4,0,26.8s-19.4,7.4-26.8,0"/>
<polygon id="XMLID_288_" style="fill:#2A7466;" points="212.2,331.5 165.9,400.9 119.6,400.9 "/>
<polygon id="XMLID_249_" style="fill:#2A7466;" points="300,355.7 287,400.9 193.5,400.9 240.3,368.4 "/>
<polygon id="XMLID_232_" style="fill:#2A7466;" points="46.8,331.5 47.8,400.9 1,400.9 26.7,355.7 "/>
<path id="XMLID_248_" style="fill:#69D8A2;" d="M429.4,280.7c-11.3,11.3-29.7,11.3-41.1,0s-11.3-29.7,0-41.1"/>
<polygon id="XMLID_175_" style="fill:#1B4C43;" points="77.1,324 101.6,400.9 126.3,400.9 "/>
<polygon id="XMLID_208_" style="fill:#2A7466;" points="131,343.1 84,400.9 47.8,400.9 81,365.4 "/>
<polygon id="XMLID_178_" style="fill:#1B4C43;" points="251.4,334.2 269.8,400.9 335.6,400.9 "/>
<polygon id="XMLID_181_" style="fill:#2A7466;" points="599,301.2 576.4,400.9 558.2,400.9 "/>
<polygon id="XMLID_180_" style="fill:#1B4C43;" points="473.7,365.4 475.7,400.9 540.2,400.9 "/>
<g id="XMLID_60_">
	<path id="XMLID_2_" style="fill:#9B3B23;" d="M37.5,289.2h9.1v41.9h43.1v-41.9h9.1v90h-9.1v-39H46.6v39h-9.1V289.2z"/>
	<path id="XMLID_4_" style="fill:#9B3B23;" d="M116,305.2c0-12.1,7.3-16.4,15.5-16l38.9,2v7.1h-38.9c-6.4,0-6.4,3.6-6.4,6.9v24.6
		l40.3,1.2v7.3l-40.3,1.2v24.6c0.1,6.5,4.1,6.4,7.6,6.4h37.6v7l-37.6,2.1c-8.1,0.5-16.7-1.6-16.7-15.5L116,305.2L116,305.2z"/>
	<path id="XMLID_6_" style="fill:#9B3B23;" d="M185.8,289.2h9.1v74.5c0,6.5,4.1,6.4,7.6,6.4h37.6v9.1h-37.6
		c-8.1,0-16.7-1.6-16.7-15.5V289.2L185.8,289.2z"/>
	<path id="XMLID_8_" style="fill:#9B3B23;" d="M254.3,289.2h9.1v74.5c0,6.5,4.1,6.4,7.6,6.4h37.6v9.1H271c-8.1,0-16.7-1.6-16.7-15.5
		V289.2L254.3,289.2z"/>
	<path id="XMLID_10_" style="fill:#9B3B23;" d="M352.2,288.6c21.3,0,34.7,4.1,34.7,46.2c0,39.7-12.5,44.9-34.7,44.9
		c-22.1,0-34.9-3.9-34.9-44.9C317.2,292.6,331.5,288.6,352.2,288.6z M352.2,370.6c19.2,0,25.6-5.2,25.6-35.8
		c0-36.8-8.9-37.1-25.6-37.1c-16.4,0-25.8,0.4-25.8,37.1C326.3,366.4,332.7,370.6,352.2,370.6z"/>
</g>
<polygon id="XMLID_179_" style="fill:#1B4C43;" points="9.9,347.3 32.5,400.9 69.1,400.9 "/>
<polygon id="XMLID_177_" style="fill:#2A7466;" points="408.5,352.6 379.6,400.9 333.1,400.9 "/>
<polygon id="XMLID_176_" style="fill:#2F9C86;" points="546.8,347.7 534.2,400.9 486.4,400.9 "/>
<path id="XMLID_231_" style="fill:#2F9C86;" d="M1,400.9l52.2-51.2l38.7,33.6l34.4-16.6c0,0,33.9,22.4,38.2,22.4
	c4.3,0,55.6-11.7,55.6-11.7l49.7,18.6l78.9-59.3l62.9,59.9l30.6-15.6l34.9,13.3l45.8-67.3l15.9,67.3l54.4-30.9l5.8,37.4H1V400.9z"/>
<polygon id="XMLID_311_" style="fill:#1B4C43;" points="343,400.9 348.6,336.8 416.6,400.9 "/>
<polygon id="XMLID_174_" style="fill:#1B4C43;" points="442.2,381.1 457.2,400.9 494.4,400.9 "/>
<polygon id="XMLID_173_" style="fill:#1B4C43;" points="522.9,327 519,400.9 540.2,400.9 "/>
<polygon id="XMLID_172_" style="fill:#1B4C43;" points="220.1,377.4 232.8,400.9 287,400.9 "/>
<polygon id="XMLID_171_" style="fill:#1B4C43;" points="126.3,366.8 141.5,400.9 183.5,400.9 "/>
<polygon id="XMLID_170_" style="fill:#1B4C43;" points="53.2,349.7 69.1,400.9 112.3,400.9 "/>
<polygon id="XMLID_169_" style="fill:#2F9C86;" points="9.9,347.3 1,400.9 37.8,400.9 "/>
<polygon id="XMLID_168_" style="fill:#2A7466;" points="593.2,363.4 568.8,400.9 599,400.9 "/>
<rect id="XMLID_298_" x="380.6" y="1243.2" style="fill:#43CE8B;" width="102.4" height="102.4"/>
</svg>
