<?xml version="1.0" encoding="utf-8"?>
<!-- Generator: Adobe Illustrator 19.0.0, SVG Export Plug-In . SVG Version: 6.00 Build 0)  -->
<svg version="1.1" id="header-space" xmlns="http://www.w3.org/2000/svg" xmlns:xlink="http://www.w3.org/1999/xlink" x="0px"
	 y="0px" viewBox="42 264.5 600 200" style="enable-background:new 42 264.5 600 200;" xml:space="preserve">
<path id="XMLID_217_" style="fill:#2A7466;" d="M641,464.2L588.8,411l-38.7,35l-34.4-17.2c0,0-33.9,23.3-38.2,23.3
	s-55.6-12.2-55.6-12.2l-49.7,19.4l-78.9-61.7l-62.9,62.3l-30.6-16.2l-34.9,13.8l-45.8-70l-15.9,70l-51.2-46.8l-9,53.6H641z"/>
<g id="XMLID_324_">
	<circle id="XMLID_345_" style="fill:#D9F5E8;" cx="537.5" cy="382.6" r="24.9"/>
	<circle id="XMLID_343_" style="fill:none;stroke:#EDB53D;stroke-miterlimit:10;" cx="537.5" cy="382.6" r="36.4"/>
	<path id="XMLID_328_" style="fill:#B4EBD1;" d="M537.5,407.5c-13.8,0-24.9-11.2-24.9-24.9s11.2-24.9,24.9-24.9"/>
</g>
<polygon id="XMLID_322_" style="fill:#1B4C43;" points="43,411.3 54.9,377 68.7,419 88.8,394.8 126,427.2 173,406.4 204.6,431.7 
	254.2,394.8 282.3,431.7 342,419 398.3,449 450.5,415.9 484.2,449 490.3,425.7 504.4,443.6 533.9,425.7 562.8,449 610.5,402.8 
	619,419 641,364.5 641,464.2 43,464.2 "/>
<polygon id="XMLID_321_" style="fill:#2F9C86;" points="610.5,402.8 600.2,464.2 548.9,464.2 "/>
<polygon id="XMLID_320_" style="fill:#2A7466;" points="54.9,377 74.5,464.2 43,464.2 43,411.3 "/>
<path id="XMLID_316_" style="fill:#8EE2B9;" d="M621.2,270.5c7.4,7.4,7.4,19.4,0,26.8s-19.4,7.4-26.8,0"/>
<polygon id="XMLID_288_" style="fill:#2A7466;" points="254.2,394.8 207.9,464.2 161.6,464.2 "/>
<polygon id="XMLID_249_" style="fill:#2A7466;" points="342,419 329,464.2 235.5,464.2 282.3,431.7 "/>
<polygon id="XMLID_232_" style="fill:#2A7466;" points="88.8,394.8 89.8,464.2 43,464.2 68.7,419 "/>
<path id="XMLID_248_" style="fill:#69D8A2;" d="M471.4,344c-11.3,11.3-29.7,11.3-41.1,0s-11.3-29.7,0-41.1"/>
<polygon id="XMLID_175_" style="fill:#1B4C43;" points="119.1,387.3 143.6,464.2 168.3,464.2 "/>
<polygon id="XMLID_208_" style="fill:#2A7466;" points="173,406.4 126,464.2 89.8,464.2 123,428.7 "/>
<polygon id="XMLID_178_" style="fill:#1B4C43;" points="293.4,397.5 311.8,464.2 377.6,464.2 "/>
<polygon id="XMLID_181_" style="fill:#2A7466;" points="641,364.5 618.4,464.2 600.2,464.2 "/>
<g>
	<path style="fill:#9B3B23;" d="M85.2,371.9c4.2,0,14.7,1.1,20.3,2.2v4.7c-0.5,0-12.4-1-20.3-1c-10.6,0-12.8,7.7-12.8,23.8
		c0,17.8,3.3,23.8,13.1,24c6.1,0.1,15.4-3.7,15.4-3.7v-16H87.4v-4c3.2-0.9,7.4-2,13.9-2c1.7,0,3.5,0.1,5.4,0.2v30.9h-4.5l-1.3-3.9
		c-3,1.7-8.3,4.3-15.5,4.3c-16.6,0.2-19-13-19-30C66.5,385.5,69.3,371.9,85.2,371.9z"/>
	<path style="fill:#9B3B23;" d="M116,388.6h4.2l1.8,5.4c4.9-2.8,9.3-5.8,15.8-5.8c2.3,0,5,0.2,5.9,0.6v5.8c-1-0.2-3.6-0.5-5.9-0.5
		c-6.4,0-9.7,1.7-15.8,4.6v32.3H116V388.6z"/>
	<path style="fill:#9B3B23;" d="M148.5,416.1c0-6.4,4-10.6,10.6-10.6c0,0,17.8,0.1,17.8,0c0,0,0.1-5.3,0-5.4c0-4.9-2.6-6.6-6.6-6.6
		c-5.8,0-12.7,0.4-20.5,1v-4.3c5.7-1.6,12.8-2.3,20.7-2.4c6.6-0.1,12.2,3.5,12.2,12.3v31h-4.4l-1.5-5.1c-0.2,0-10.5,5.6-17.8,5.6
		c-5.8,0-10.6-3.8-10.6-10.6V416.1z M159.1,425.6c6.4,0,17.8-4.1,17.8-4.1v-11.4l-17.8,1.3c-3.4,0.3-4.7,2.6-4.7,5.2v4
		C154.4,424.4,156.4,425.6,159.1,425.6z"/>
	<path style="fill:#9B3B23;" d="M191.6,388.6h4.2l1.5,4.7c2.1-1.5,10.3-5.2,15.8-5.2c11.6,0,14,11.8,14,21.5
		c0,10.9-1.9,22.1-14,22.1c-3.6,0-10.6-1.1-15.8-3.2v24.2h-5.8V388.6z M213.1,425.8c5.1,0,8.1-3.1,8.1-16.2
		c0-10.4-2.9-15.6-8.1-15.6c-6.3,0-11.4,1.9-15.8,3.7v26C202.9,425.2,206.9,425.8,213.1,425.8z"/>
	<path style="fill:#9B3B23;" d="M235.9,368.4h5.9v25.2c4.9-2.8,9.2-5.7,15.7-5.7c8.5,0,13.1,6.6,13.1,13.6v29.6h-5.9v-29.6
		c0-5.3-3-7.7-7.2-7.7c-6.4,0-9.5,1.6-15.7,4.6v32.7h-5.9V368.4z"/>
	<path style="fill:#9B3B23;" d="M278.6,377.4c0-1.2,0.6-2,1.9-2h4c1.2,0,1.8,0.9,1.8,2v4.3c0,1.2-0.7,1.8-1.8,1.8h-4
		c-1.1,0-1.9-0.7-1.9-1.8V377.4z M279.4,388.6h5.9v42.5h-5.9V388.6z"/>
	<path style="fill:#9B3B23;" d="M308.4,388.2c4.2,0,12.6,1,18.2,2.1v4.3c0,0-11.1-0.5-18.2-0.5c-4.8,0-8.1,0.9-8.1,16
		c0,12.2,2.3,15.4,8.1,15.4c7.4,0,18.8-0.9,18.8-0.9v4.5c-6.5,1.8-12.2,2.2-18.8,2.3c-7.9,0-14-3-14-21.7
		C294.4,391.2,300.2,388.2,308.4,388.2z"/>
	<path style="fill:#9B3B23;" d="M333.6,398.8c0-6.6,2.8-10.6,11-10.6c4.2,0,16.7,0.9,20.9,1.3v4.6h-20.9c-5.1,0-5.1,2-5.1,4.7v3.7
		c0,4.4,2.2,4.6,5.1,4.6h12.6c7,0,10.4,4.3,10.4,10.3v3.9c0,8.7-5.3,10.2-10.4,10.2c-3.9,0-18.9-1.2-21.9-1.5v-4.4h21.9
		c0,0,4.5,0.5,4.5-4.3v-3.9c0-2.8-1-4.4-4.5-4.4h-12.6c-7.5,0-11-2.2-11-10.5V398.8z"/>
</g>
<polygon id="XMLID_180_" style="fill:#1B4C43;" points="515.7,428.7 517.7,464.2 582.2,464.2 "/>
<polygon id="XMLID_179_" style="fill:#1B4C43;" points="51.9,410.6 74.5,464.2 111.1,464.2 "/>
<polygon id="XMLID_177_" style="fill:#2A7466;" points="450.5,415.9 421.6,464.2 375.1,464.2 "/>
<polygon id="XMLID_176_" style="fill:#2F9C86;" points="588.8,411 576.2,464.2 528.4,464.2 "/>
<path id="XMLID_231_" style="fill:#2F9C86;" d="M43,464.2L95.2,413l38.7,33.6l34.4-16.6c0,0,33.9,22.4,38.2,22.4
	s55.6-11.7,55.6-11.7l49.7,18.6l78.9-59.3l62.9,59.9l30.6-15.6l34.9,13.3l45.8-67.3l15.9,67.3l54.4-30.9l5.8,37.4H43z"/>
<polygon id="XMLID_311_" style="fill:#1B4C43;" points="385,464.2 390.6,400.1 458.6,464.2 "/>
<polygon id="XMLID_174_" style="fill:#1B4C43;" points="484.2,444.4 499.2,464.2 536.4,464.2 "/>
<polygon id="XMLID_173_" style="fill:#1B4C43;" points="564.9,390.3 561,464.2 582.2,464.2 "/>
<polygon id="XMLID_172_" style="fill:#1B4C43;" points="262.1,440.7 274.8,464.2 329,464.2 "/>
<polygon id="XMLID_171_" style="fill:#1B4C43;" points="168.3,430.1 183.5,464.2 225.5,464.2 "/>
<polygon id="XMLID_170_" style="fill:#1B4C43;" points="95.2,413 111.1,464.2 154.3,464.2 "/>
<polygon id="XMLID_169_" style="fill:#2F9C86;" points="51.9,410.6 43,464.2 79.8,464.2 "/>
<polygon id="XMLID_168_" style="fill:#2A7466;" points="635.2,426.7 610.8,464.2 641,464.2 "/>
<rect id="XMLID_298_" x="380.6" y="1042.2" style="fill:#43CE8B;" width="102.4" height="102.4"/>
</svg>
