<?xml version="1.0" encoding="utf-8"?>
<!-- Generator: Adobe Illustrator 19.0.0, SVG Export Plug-In . SVG Version: 6.00 Build 0)  -->
<svg version="1.1" id="header-space" xmlns="http://www.w3.org/2000/svg" xmlns:xlink="http://www.w3.org/1999/xlink" x="0px"
	 y="0px" viewBox="42 264.5 600 200" style="enable-background:new 42 264.5 600 200;" xml:space="preserve">
<style type="text/css">
	.st0{fill:#3A3735;}
	.st1{fill:#0F5546;}
	.st2{fill:#168068;}
	.st3{fill:#D2EEE8;}
	.st4{fill:none;stroke:#D2EEE8;stroke-miterlimit:10;}
	.st5{fill:#1DAA8B;}
	.st6{fill:#4ABBA2;}
	.st7{opacity:0;}
	.st8{fill:#43CE8B;}
</style>
<polygon id="XMLID_12_" class="st0" points="642.8,404.5 525.5,324.4 42,404.5 "/>
<polygon id="XMLID_683_" class="st1" points="42,463.5 42,364 75.4,396.8 81.9,384.2 109.2,397.9 142,364.5 175.5,398.1 
	191.6,365.3 202.2,385.1 242,365.3 274.9,397.1 291.1,364.9 307.6,397.5 342,364.6 374.8,397.9 390.9,367.8 407.7,397.9 
	442.8,364.6 474.8,397.9 491.4,364 508.9,397.9 542.1,364.5 575.1,397.9 641.7,364.6 640.8,463.8 "/>
<polygon id="XMLID_682_" class="st2" points="42,463.5 75.4,396.8 91.7,414.8 109.2,397.9 121.9,424.6 142.3,413.9 175.4,431.4 
	209,397.9 241.1,463.5 274.9,397.1 291.1,414.8 307.6,397.5 321.2,424.6 341.6,413.9 374.2,430.9 407.7,397.9 440.4,463.5 
	474.8,397.9 491.8,413.8 508.9,397.9 521.6,424.6 542.5,413.9 574.6,430.9 608.7,397.9 640.8,463.8 "/>
<circle id="XMLID_681_" class="st3" cx="526.5" cy="324.8" r="24.1"/>
<circle id="XMLID_680_" class="st4" cx="526.5" cy="324.8" r="29.1"/>
<polygon id="XMLID_678_" class="st5" points="42,463.5 91.7,414.8 142,465 175.5,397.9 241.1,463.5 291.1,414.8 341.5,464.9 
	374.8,397.9 440.4,463.5 491.8,413.8 541.7,464.9 575.1,397.9 640.8,463.8 "/>
<polygon id="XMLID_677_" class="st6" points="42,465.5 108.7,431.9 142,465.5 175.6,431.5 241.3,464.7 308.3,431.2 339.9,463.5 
	375.3,430.9 441.9,464.9 508.7,431.1 541.9,464.9 575.3,432.3 640.8,465.5 "/>
<g id="XMLID_659_" class="st7">
	<polygon id="XMLID_676_" class="st8" points="480.8,330.5 489.6,315.3 498.4,330.5 	"/>
	<polygon id="XMLID_675_" class="st8" points="588.9,340.6 615.5,326.6 614.3,356.6 	"/>
	<polygon id="XMLID_674_" class="st8" points="401,351.5 402.8,328.7 421.7,341.7 	"/>
	<polygon id="XMLID_673_" class="st8" points="353.8,325.8 355.7,303 374.5,316 	"/>
	<polygon id="XMLID_672_" class="st8" points="299.2,352.6 301,329.7 319.9,342.7 	"/>
	<polygon id="XMLID_671_" class="st8" points="310.7,312.9 322.4,307.3 321.4,320.2 	"/>
	<polygon id="XMLID_670_" class="st8" points="499.3,340.8 511,335.1 510,348 	"/>
	<polygon id="XMLID_669_" class="st8" points="565.7,308.6 577.4,303 576.5,315.9 	"/>
	<polygon id="XMLID_668_" class="st8" points="471.4,354.7 483.1,349.1 482.2,362 	"/>
	<polygon id="XMLID_667_" class="st8" points="466.1,340.8 477.7,335.1 476.8,348 	"/>
	<polygon id="XMLID_666_" class="st8" points="332.1,323.6 343.8,318 342.9,330.9 	"/>
	<polygon id="XMLID_665_" class="st8" points="769.3,306.5 781,300.8 780.1,313.8 	"/>
	<polygon id="XMLID_664_" class="st8" points="799.3,340.8 811,335.1 810.1,348 	"/>
	<polygon id="XMLID_663_" class="st8" points="265.7,340.8 277.3,335.1 276.4,348 	"/>
	<polygon id="XMLID_662_" class="st8" points="676.8,323.5 703.3,309.5 702.2,339.5 	"/>
	<polygon id="XMLID_661_" class="st8" points="724.7,331.2 743.3,307.6 754.4,335.5 	"/>
	<polygon id="XMLID_660_" class="st8" points="756.1,340.6 782.6,326.6 781.5,356.6 	"/>
</g>
</svg>
