<?xml version="1.0" encoding="iso-8859-1"?>
<!-- Generator: Adobe Illustrator 19.2.1, SVG Export Plug-In . SVG Version: 6.00 Build 0)  -->
<svg version="1.1" id="header-space" xmlns="http://www.w3.org/2000/svg" xmlns:xlink="http://www.w3.org/1999/xlink" x="0px"
	 y="0px" viewBox="0 0 600 154" style="enable-background:new 0 0 600 154;" xml:space="preserve">
<path id="XMLID_217_" style="fill:#2A2A2A;" d="M600,153.9l-52.2-53.2l-38.7,35l-34.4-17.2c0,0-33.9,23.3-38.2,23.3
	s-55.6-12.2-55.6-12.2L331.2,149l-78.9-61.7l-62.9,62.3l-30.6-16.2l-34.9,13.8l-45.8-70l-15.9,70L11,100.4L2,154L600,153.9
	L600,153.9z"/>
<polygon id="XMLID_180_" style="fill:#3C3C3C;" points="474.7,118.4 476.7,153.9 541.2,153.9 "/>
<polygon id="XMLID_176_" style="fill:#4E4E4E;" points="547.8,100.7 535.2,153.9 487.4,153.9 "/>
<polygon id="XMLID_322_" style="fill:#78756F;" points="2,101 13.9,66.7 27.7,108.7 47.8,84.5 85,116.9 132,96.1 163.6,121.4 
	213.2,84.5 241.3,121.4 301,108.7 357.3,138.7 409.5,105.6 443.2,138.7 449.3,115.4 463.4,133.3 492.9,115.4 521.8,138.7 
	569.5,92.5 578,108.7 600,54.2 600,153.9 2,153.9 "/>
<polygon id="XMLID_321_" style="fill:#797979;" points="569.5,92.5 559.2,153.9 507.9,153.9 "/>
<polygon id="XMLID_320_" style="fill:#797979;" points="13.9,66.7 33.5,153.9 2,153.9 2,101 "/>
<polygon id="XMLID_288_" style="fill:#797979;" points="213.2,84.5 166.9,153.9 120.6,153.9 "/>
<polygon id="XMLID_178_" style="fill:#3C3C3C;" points="252.4,87.2 270.8,153.9 336.6,153.9 "/>
<polygon id="XMLID_249_" style="fill:#797979;" points="301,108.7 288,153.9 194.5,153.9 241.3,121.4 "/>
<polygon id="XMLID_232_" style="fill:#797979;" points="47.8,84.5 48.8,153.9 2,153.9 27.7,108.7 "/>
<polygon id="XMLID_175_" style="fill:#3C3C3C;" points="78.1,77 102.6,153.9 127.3,153.9 "/>
<polygon id="XMLID_208_" style="fill:#797979;" points="132,96.1 85,153.9 48.8,153.9 82,118.4 "/>
<polygon id="XMLID_181_" style="fill:#797979;" points="600,54.2 577.4,153.9 559.2,153.9 "/>
<g id="XMLID_60_">
	<path id="XMLID_2_" style="fill:#B18200;" d="M38.5,42.2h9.1v41.9h43.1V42.2h9.1v90h-9.1v-39H47.6v39h-9.1V42.2z"/>
	<path id="XMLID_4_" style="fill:#B18200;" d="M117,58.2c0-12.1,7.3-16.4,15.5-16l38.9,2v7.1h-38.9c-6.4,0-6.4,3.6-6.4,6.9v24.6
		l40.3,1.2v7.3l-40.3,1.2v24.6c0.1,6.5,4.1,6.4,7.6,6.4h37.6v7l-37.6,2.1c-8.1,0.5-16.7-1.6-16.7-15.5L117,58.2L117,58.2z"/>
	<path id="XMLID_6_" style="fill:#B18200;" d="M186.8,42.2h9.1v74.5c0,6.5,4.1,6.4,7.6,6.4h37.6v9.1h-37.6
		c-8.1,0-16.7-1.6-16.7-15.5V42.2L186.8,42.2z"/>
	<path id="XMLID_8_" style="fill:#B18200;" d="M255.3,42.2h9.1v74.5c0,6.5,4.1,6.4,7.6,6.4h37.6v9.1H272c-8.1,0-16.7-1.6-16.7-15.5
		V42.2L255.3,42.2z"/>
	<path id="XMLID_10_" style="fill:#B18200;" d="M353.2,41.6c21.3,0,34.7,4.1,34.7,46.2c0,39.7-12.5,44.9-34.7,44.9
		c-22.1,0-34.9-3.9-34.9-44.9C318.2,45.6,332.5,41.6,353.2,41.6z M353.2,123.6c19.2,0,25.6-5.2,25.6-35.8c0-36.8-8.9-37.1-25.6-37.1
		c-16.4,0-25.8,0.4-25.8,37.1C327.3,119.4,333.7,123.6,353.2,123.6z"/>
</g>
<polygon id="XMLID_179_" style="fill:#121212;" points="10.9,100.3 33.5,153.9 70.1,153.9 "/>
<polygon id="XMLID_177_" style="fill:#797979;" points="409.5,105.6 380.6,153.9 334.1,153.9 "/>
<path id="XMLID_231_" style="fill:#373737;" d="M2,153.9l52.2-51.2l38.7,33.6l34.4-16.6c0,0,33.9,22.4,38.2,22.4
	c4.3,0,55.6-11.7,55.6-11.7l49.7,18.6l78.9-59.3l62.9,59.9l30.6-15.6l34.9,13.3L523.9,80l15.9,67.3l54.4-30.9l5.8,37.4L2,153.9
	L2,153.9z"/>
<polygon id="XMLID_311_" style="fill:#121212;" points="344,153.9 349.6,89.8 417.6,153.9 "/>
<polygon id="XMLID_174_" style="fill:#121212;" points="443.2,134.1 458.2,153.9 495.4,153.9 "/>
<polygon id="XMLID_173_" style="fill:#121212;" points="523.9,80 520,153.9 541.2,153.9 "/>
<polygon id="XMLID_172_" style="fill:#121212;" points="221.1,130.4 233.8,153.9 288,153.9 "/>
<polygon id="XMLID_171_" style="fill:#121212;" points="127.3,119.8 142.5,153.9 184.5,153.9 "/>
<polygon id="XMLID_170_" style="fill:#121212;" points="54.2,102.7 70.1,153.9 113.3,153.9 "/>
<polygon id="XMLID_169_" style="fill:#2B2B2B;" points="10.9,100.3 2,153.9 38.8,153.9 "/>
<polygon id="XMLID_168_" style="fill:#070707;" points="594.2,116.4 569.8,153.9 600,153.9 "/>
<rect id="XMLID_298_" x="380.6" y="1197.2" style="fill:#43CE8B;" width="102.4" height="102.4"/>
<circle style="fill:#ECAD00;" cx="475.2" cy="39.2" r="14.8"/>
<circle style="fill:none;stroke:#ECAD00;stroke-miterlimit:10;" cx="475.2" cy="39.2" r="20.2"/>
<path id="lone-circle" style="fill:#EDAD0C;" d="M448.7,213.3c14.9,0,28.9,5.8,39.4,16.4c10.5,10.6,16.4,24.5,16.4,39.4
	c0,14.9-5.8,28.9-16.4,39.4s-24.5,16.4-39.4,16.4c-14.9,0-28.9-5.8-39.4-16.4C398.8,297.8,393,283.9,393,269s5.8-28.9,16.4-39.4
	C419.9,219.2,433.8,213.3,448.7,213.3 M448.7,201.1c-37.5,0-68,30.4-68,68s30.4,68,68,68s68-30.4,68-68S486.2,201.1,448.7,201.1
	L448.7,201.1z"/>
<path id="lone-circle_1_" style="fill:#EDAD0C;" d="M448.7,223.3c12.2,0,23.7,4.8,32.3,13.4c8.6,8.7,13.4,20.1,13.4,32.3
	s-4.8,23.7-13.4,32.3c-8.7,8.6-20.1,13.4-32.3,13.4c-12.2,0-23.7-4.8-32.3-13.4c-8.6-8.7-13.4-20.1-13.4-32.3s4.8-23.7,13.4-32.3
	C425.1,228.1,436.5,223.3,448.7,223.3 M448.7,213.3c-30.8,0-55.7,25-55.7,55.7s25,55.7,55.7,55.7s55.7-25,55.7-55.7
	S479.5,213.3,448.7,213.3L448.7,213.3z"/>
<g id="side-square">
	<path id="square" style="fill:#9B3B23;" d="M346,213.8v110.4H235.6V213.8H346 M357.1,202.8H224.5v132.5h132.5V202.8L357.1,202.8z"
		/>
</g>
<g id="side-square_1_">
	<path id="square_1_" style="fill:#9B3B23;" d="M336.8,223v92h-92v-92H336.8 M346,213.8H235.6v110.4H346V213.8L346,213.8z"/>
</g>
<path id="tri" style="fill:#1DAA8B;" d="M116.4,222.8l59.8,103.5H56.6L116.4,222.8 M116.4,200.6l-79.1,137h158.2L116.4,200.6
	L116.4,200.6z"/>
<path id="tri_1_" style="fill:#1DAA8B;" d="M116.4,233.7l48.4,83.7H68L116.4,233.7 M116.4,215.6l-64,110.8h128L116.4,215.6
	L116.4,215.6z"/>
<g id="XMLID_1_">
	<path id="XMLID_11_" style="fill:#ECAD00;" d="M36.5,42.2h9.1v41.9h43.1V42.2h9.1v90h-9.1v-39H45.6v39h-9.1V42.2z"/>
	<path id="XMLID_9_" style="fill:#ECAD00;" d="M115,58.2c0-12.1,7.3-16.4,15.5-16l38.9,2v7.1h-38.9c-6.4,0-6.4,3.6-6.4,6.9v24.6
		l40.3,1.2v7.3l-40.3,1.2v24.6c0.1,6.5,4.1,6.4,7.6,6.4h37.6v7l-37.6,2.1c-8.1,0.5-16.7-1.6-16.7-15.5L115,58.2L115,58.2z"/>
	<path id="XMLID_7_" style="fill:#ECAD00;" d="M184.8,42.2h9.1v74.5c0,6.5,4.1,6.4,7.6,6.4h37.6v9.1h-37.6
		c-8.1,0-16.7-1.6-16.7-15.5V42.2L184.8,42.2z"/>
	<path id="XMLID_5_" style="fill:#ECAD00;" d="M253.3,42.2h9.1v74.5c0,6.5,4.1,6.4,7.6,6.4h37.6v9.1H270c-8.1,0-16.7-1.6-16.7-15.5
		V42.2L253.3,42.2z"/>
	<path id="XMLID_3_" style="fill:#ECAD00;" d="M351.2,41.6c21.3,0,34.7,4.1,34.7,46.2c0,39.7-12.5,44.9-34.7,44.9
		c-22.1,0-34.9-3.9-34.9-44.9C316.2,45.6,330.5,41.6,351.2,41.6z M351.2,123.6c19.2,0,25.6-5.2,25.6-35.8c0-36.8-8.9-37.1-25.6-37.1
		c-16.4,0-25.8,0.4-25.8,37.1C325.3,119.4,331.7,123.6,351.2,123.6z"/>
</g>
</svg>
