<?xml version="1.0" encoding="utf-8"?>
<!-- Generator: Adobe Illustrator 19.2.1, SVG Export Plug-In . SVG Version: 6.00 Build 0)  -->
<svg version="1.1" id="Layer_1" xmlns="http://www.w3.org/2000/svg" xmlns:xlink="http://www.w3.org/1999/xlink" x="0px" y="0px"
	 viewBox="0 0 449.9 331.7" enable-background="new 0 0 449.9 331.7" xml:space="preserve">
<g>
	<path id="quadrado" fill="#9B3B23" d="M172.4,69.3v106.1h106.1V69.3H172.4z M182.9,164.9V79.8H268v85.2H182.9z"/>
	<path id="XMLID_61_" fill="#1A1A1A" d="M98,68.2c0-32.9,56.6-59.6,126.5-59.6S351,35.3,351,68.2"/>
	<g id="XMLID_28_">
		<g id="XMLID_15_">
			<circle id="XMLID_26_" fill="#2B2928" cx="145.8" cy="47.9" r="3.7"/>
			<path id="XMLID_25_" fill="#232323" d="M145.8,51.7c-2,0-3.7-1.7-3.7-3.7s1.7-3.7,3.7-3.7"/>
		</g>
		<g id="XMLID_3_">
			
				<line id="XMLID_13_" fill="none" stroke="#9B3B23" stroke-linecap="round" stroke-miterlimit="10" x1="145.8" y1="47.9" x2="131.6" y2="56.1"/>
			
				<line id="XMLID_12_" fill="none" stroke="#9B3B23" stroke-linecap="round" stroke-miterlimit="10" x1="160" y1="56.1" x2="145.8" y2="47.9"/>
			
				<line id="XMLID_11_" fill="none" stroke="#9B3B23" stroke-linecap="round" stroke-miterlimit="10" x1="145.8" y1="31.6" x2="145.8" y2="47.9"/>
			
				<line id="XMLID_8_" fill="none" stroke="#9B3B23" stroke-linecap="round" stroke-miterlimit="10" x1="160" y1="56.1" x2="145.8" y2="64.3"/>
			
				<line id="XMLID_6_" fill="none" stroke="#9B3B23" stroke-linecap="round" stroke-miterlimit="10" x1="145.8" y1="31.6" x2="160" y2="39.8"/>
			
				<line id="XMLID_5_" fill="none" stroke="#9B3B23" stroke-linecap="round" stroke-miterlimit="10" x1="131.6" y1="56.1" x2="131.6" y2="39.8"/>
		</g>
		<g id="XMLID_9_">
			<circle id="XMLID_7_" fill="#E9A30C" cx="145.8" cy="47.9" r="2.8"/>
			<path id="XMLID_10_" fill="#AF7A09" d="M145.8,50.7c-1.5,0-2.8-1.2-2.8-2.8s1.2-2.8,2.8-2.8"/>
		</g>
	</g>
	<path id="XMLID_53_" fill="#E9A30C" d="M195.5,64c-9,0-16.2-7.3-16.2-16.2s7.3-16.2,16.2-16.2V64z"/>
	<g opacity="0.35">
		<polygon id="XMLID_70_" fill="#0F5546" points="301.4,97.5 301.4,148.6 292.9,131.8 291.2,138.2 284.3,131.2 276,148.4 
			267.5,131.1 263.4,148 260.7,137.8 250.6,148 242.2,131.6 238.1,148.2 233.9,131.4 225.2,148.3 216.9,131.2 212.8,146.7 
			208.5,131.2 199.6,148.3 191.5,131.2 187.2,148.6 182.8,131.2 174.4,148.4 166,131.2 149.1,148.3 149.3,97.3 		"/>
		<polygon id="XMLID_69_" fill="#168068" points="301.4,97.5 292.9,131.8 288.8,122.5 284.3,131.2 281.1,117.5 275.9,123 267.5,114 
			259,131.2 250.8,97.5 242.2,131.6 238.1,122.5 233.9,131.4 230.5,117.5 225.3,123 217,114.2 208.5,131.2 200.2,97.5 191.5,131.2 
			187.1,123 182.8,131.2 179.6,117.5 174.3,123 166.1,114.2 157.5,131.2 149.3,97.3 		"/>
		<polygon id="XMLID_68_" fill="#1DAA8B" points="301.4,97.5 288.8,122.5 276,96.7 267.5,131.2 250.8,97.5 238.1,122.5 225.3,96.8 
			216.9,131.2 200.2,97.5 187.1,123 174.5,96.8 166,131.2 149.3,97.3 		"/>
		<polygon id="XMLID_67_" fill="#4ABBA2" points="301.4,96.5 284.4,113.7 276,96.5 267.4,113.9 250.8,96.9 233.7,114.1 225.7,97.5 
			216.7,114.2 199.8,96.8 182.9,114.1 174.4,96.8 165.9,113.5 149.3,96.5 		"/>
	</g>
	<g opacity="0.56">
		<polygon id="XMLID_66_" fill="#0F5546" points="323.2,90.7 323.2,130.3 312.2,117.2 310.1,122.2 301.2,116.8 290.5,130.1 
			279.6,116.7 274.3,129.8 270.8,121.9 257.8,129.8 247.1,117.1 241.8,129.9 236.4,116.9 225.2,130 214.5,116.8 209.2,128.8 
			203.7,116.8 192.3,130 181.8,116.8 176.4,130.3 170.7,116.8 159.8,130.1 149,116.8 127.3,130 127.6,90.5 		"/>
		<polygon id="XMLID_65_" fill="#168068" points="323.2,90.7 312.2,117.2 306.9,110 301.2,116.8 297.1,106.1 290.4,110.4 
			279.6,103.4 268.6,116.8 258.1,90.7 247.1,117.1 241.8,110 236.4,116.9 232,106.1 225.3,110.4 214.7,103.6 203.7,116.8 193,90.7 
			181.8,116.8 176.3,110.4 170.7,116.8 166.5,106.1 159.7,110.4 149.2,103.6 138.1,116.8 127.6,90.5 		"/>
		<polygon id="XMLID_64_" fill="#1DAA8B" points="323.2,90.7 306.9,110 290.5,90.1 279.6,116.8 258.1,90.7 241.8,110 225.3,90.1 
			214.5,116.8 193,90.7 176.3,110.4 160,90.1 149,116.8 127.6,90.5 		"/>
		<polygon id="XMLID_62_" fill="#4ABBA2" points="323.2,89.9 301.4,103.2 290.5,89.9 279.5,103.4 258.1,90.2 236.2,103.5 
			225.9,90.7 214.3,103.6 192.6,90.1 170.7,103.6 159.9,90.1 149,103.1 127.6,89.9 		"/>
	</g>
	<path id="XMLID_59_" fill="#E9A30C" d="M236.2,41c0,7.7-6.3,14-14,14s-14-6.3-14-14H236.2z"/>
	<path id="XMLID_56_" fill="#F5F5F5" d="M214.1,41.2c0-4.5,3.7-8.2,8.2-8.2s8.2,3.7,8.2,8.2H214.1z"/>
	<g id="XMLID_60_">
		<g id="XMLID_161_">
			<circle id="XMLID_163_" fill="#2B2928" cx="261.1" cy="62.6" r="1.7"/>
			<path id="XMLID_162_" fill="#232323" d="M262.8,62.6c0,1-0.8,1.7-1.7,1.7c-1,0-1.7-0.8-1.7-1.7"/>
		</g>
		<g id="XMLID_158_">
			<circle id="XMLID_160_" fill="#E9A30C" cx="261.1" cy="62.6" r="1.3"/>
			<path id="XMLID_159_" fill="#AF7A09" d="M262.4,62.6c0,0.7-0.6,1.3-1.3,1.3c-0.7,0-1.3-0.6-1.3-1.3"/>
		</g>
		<g id="XMLID_180_">
			<circle id="XMLID_182_" fill="#2B2928" cx="275.7" cy="48" r="1.7"/>
			<path id="XMLID_181_" fill="#232323" d="M275.7,49.7c-1,0-1.7-0.8-1.7-1.7s0.8-1.7,1.7-1.7"/>
		</g>
		<g id="XMLID_177_">
			<circle id="XMLID_179_" fill="#E9A30C" cx="275.7" cy="48" r="1.3"/>
			<path id="XMLID_178_" fill="#AF7A09" d="M275.7,49.2c-0.7,0-1.3-0.6-1.3-1.3s0.6-1.3,1.3-1.3"/>
		</g>
		<g id="XMLID_186_">
			<circle id="XMLID_188_" fill="#2B2928" cx="246.4" cy="47.9" r="1.7"/>
			<path id="XMLID_187_" fill="#232323" d="M246.4,49.7c-1,0-1.7-0.8-1.7-1.7c0-1,0.8-1.7,1.7-1.7"/>
		</g>
		<g id="XMLID_183_">
			<circle id="XMLID_185_" fill="#E9A30C" cx="246.4" cy="47.9" r="1.3"/>
			<path id="XMLID_184_" fill="#AF7A09" d="M246.4,49.2c-0.7,0-1.3-0.6-1.3-1.3s0.6-1.3,1.3-1.3"/>
		</g>
		<g id="XMLID_192_">
			<circle id="XMLID_194_" fill="#2B2928" cx="261.1" cy="33.3" r="1.7"/>
			<path id="XMLID_193_" fill="#232323" d="M259.3,33.3c0-1,0.8-1.7,1.7-1.7c1,0,1.7,0.8,1.7,1.7"/>
		</g>
		<g id="XMLID_189_">
			<circle id="XMLID_191_" fill="#E9A30C" cx="261.1" cy="33.3" r="1.3"/>
			<path id="XMLID_190_" fill="#AF7A09" d="M259.8,33.3c0-0.7,0.6-1.3,1.3-1.3c0.7,0,1.3,0.6,1.3,1.3"/>
		</g>
		<g id="XMLID_129_">
			
				<line id="XMLID_131_" fill="none" stroke="#9B3B23" stroke-linecap="round" stroke-miterlimit="10" x1="275.7" y1="47.9" x2="246.4" y2="47.9"/>
			
				<line id="XMLID_130_" fill="none" stroke="#9B3B23" stroke-linecap="round" stroke-miterlimit="10" x1="261.1" y1="62.6" x2="261.1" y2="33.3"/>
		</g>
	</g>
	<g>
		<polygon id="XMLID_683_" fill="#0F5546" points="350.4,70.4 350.4,112 336.5,98.3 333.8,103.5 322.4,97.8 308.7,111.8 294.7,97.7 
			288,111.4 283.5,103.2 266.9,111.4 253.2,98.1 246.4,111.6 239.5,98 225.2,111.7 211.5,97.8 204.7,110.4 197.7,97.8 183.1,111.7 
			169.7,97.8 162.8,112 155.5,97.8 141.6,111.8 127.8,97.8 100,111.7 100.4,70.3 		"/>
		<polygon id="XMLID_682_" fill="#168068" points="350.4,70.4 336.5,98.3 329.7,90.8 322.4,97.8 317.1,86.7 308.5,91.1 294.7,83.8 
			280.7,97.8 267.3,70.4 253.2,98.1 246.4,90.8 239.5,98 233.8,86.7 225.3,91.1 211.7,84 197.7,97.8 184.1,70.4 169.7,97.8 
			162.6,91.2 155.5,97.8 150.2,86.7 141.5,91.1 128.1,84 113.8,97.8 100.4,70.3 		"/>
		<polygon id="XMLID_678_" fill="#1DAA8B" points="350.4,70.4 329.7,90.8 308.7,69.8 294.7,97.8 267.3,70.4 246.4,90.8 225.4,69.8 
			211.5,97.8 184.1,70.4 162.6,91.2 141.8,69.8 127.8,97.8 100.4,70.3 		"/>
		<polygon id="XMLID_677_" fill="#4ABBA2" points="350.4,69.6 322.6,83.6 308.7,69.6 294.6,83.8 267.2,69.9 239.2,83.9 226,70.4 
			211.3,84 183.5,69.8 155.6,83.9 141.7,69.8 127.8,83.4 100.4,69.6 		"/>
	</g>
	<path id="XMLID_54_" fill="#AF7A09" d="M179.3,47.8c0-4.5,1.8-8.5,4.7-11.5c2.9-2.9,7-4.7,11.5-4.7v16.2"/>
	<rect id="XMLID_137_" x="98" y="68.2" fill="#133C33" width="253.9" height="2.5"/>
	<g id="XMLID_55_">
		
			<rect id="XMLID_50_" x="290.7" y="35.7" transform="matrix(0.7071 -0.7071 0.7071 0.7071 55.1139 227.5634)" fill="#9B3B23" width="23.1" height="23.1"/>
		<polyline id="XMLID_57_" fill="#742C1A" points="302.2,63.6 285.9,47.3 302.2,30.9 		"/>
	</g>
	<g id="XMLID_58_">
		
			<rect id="XMLID_139_" x="296.3" y="41.3" transform="matrix(0.7071 -0.7071 0.7071 0.7071 55.1276 227.6127)" fill="#9B3B23" width="12" height="12"/>
		<polyline id="XMLID_138_" fill="#742C1A" points="293.7,47.3 302.2,38.7 310.8,47.3 		"/>
	</g>
</g>
<g>
	<g enable-background="new    ">
		<path fill="#F1F2F2" d="M203.3,240.6l2.5,7.2l2.2-7.2h1l-0.8,2.8l1.6,4.5l2.2-7.3h1l-2.7,8.8h-0.9l-1.6-4.5l-1.4,4.5h-0.9
			l-3.1-8.8H203.3z"/>
		<path fill="#F1F2F2" d="M215.5,242.9c1.5,0,2.4,0.1,2.4,2.2c0,0.9-0.5,1.5-1.6,1.5h-2.7c0,1.5,0.3,1.9,1.2,1.9c1.1,0,2.1,0,3-0.1
			v0.7c-1,0.3-2,0.3-3,0.3c-1.6,0-2.1-0.8-2.1-3.3C212.8,243.3,213.6,242.9,215.5,242.9z M216.3,245.8c0.5,0,0.8-0.2,0.8-0.6
			c0-1.3-0.2-1.4-1.5-1.4c-1.4,0-1.9,0-1.9,2H216.3z"/>
		<path fill="#F1F2F2" d="M219.2,240h0.9v7.1c0,1,0.3,1.3,0.7,1.4c0,0,1,0.3,1.1,0.3v0.6h-1.1c-0.9,0-1.6-0.6-1.6-2.3V240z"/>
		<path fill="#F1F2F2" d="M224.1,242.9c0.6,0,1.9,0.2,2.7,0.3v0.6c0,0-1.7-0.1-2.7-0.1c-0.7,0-1.2,0.1-1.2,2.4
			c0,1.8,0.3,2.3,1.2,2.3c1.1,0,2.8-0.1,2.8-0.1v0.7c-1,0.3-1.8,0.3-2.8,0.3c-1.2,0-2.1-0.5-2.1-3.2
			C222,243.4,222.9,242.9,224.1,242.9z"/>
		<path fill="#F1F2F2" d="M230.6,242.9c2.1,0,2.8,0.8,2.8,3.3c0,2.4-0.7,3.1-2.8,3.1s-2.8-0.9-2.8-3.1
			C227.8,243.7,228.5,242.9,230.6,242.9z M230.6,248.5c1.3,0,1.9-0.2,1.9-2.3c0-2.3-0.5-2.4-1.9-2.4c-1.3,0-1.9,0.2-1.9,2.4
			C228.6,248.4,229.3,248.5,230.6,248.5z"/>
		<path fill="#F1F2F2" d="M234.7,243h0.6l0.3,0.8c0.7-0.4,1.3-0.8,2.3-0.8c0.8,0,1.5,0.3,1.8,0.9c0.6-0.5,1.5-0.9,2.6-0.9
			c1.1,0,2,0.8,2,2v4.4h-0.9V245c0-0.7-0.5-1.2-1.1-1.2c-0.9,0-1.6,0.2-2.3,0.7v0.5v4.4h-0.9V245c0-0.7-0.5-1.2-1.1-1.2
			c-0.9,0-1.3,0.2-2.3,0.7v4.9h-0.9V243z"/>
		<path fill="#F1F2F2" d="M248,242.9c1.5,0,2.4,0.1,2.4,2.2c0,0.9-0.5,1.5-1.6,1.5h-2.7c0,1.5,0.3,1.9,1.2,1.9c1.1,0,2.1,0,3-0.1
			v0.7c-1,0.3-2,0.3-3,0.3c-1.6,0-2.1-0.8-2.1-3.3C245.2,243.3,246,242.9,248,242.9z M248.7,245.8c0.5,0,0.8-0.2,0.8-0.6
			c0-1.3-0.2-1.4-1.5-1.4c-1.4,0-1.9,0-1.9,2H248.7z"/>
	</g>
	<polygon id="XMLID_18_" fill="#AF624F" points="233.9,291 215.6,291 224.8,306.9 	"/>
	<polygon id="XMLID_17_" fill="#E9A30C" points="215.5,266 197.2,266 206.3,281.9 	"/>
	<polygon id="XMLID_16_" fill="#E9A30C" points="175.2,266 193.5,266 184.3,250.1 	"/>
	<polygon id="XMLID_19_" fill="#E9A30C" points="178.9,250 161.1,250 170,265.4 	"/>
	<polygon id="XMLID_20_" fill="#E9A30C" points="165.9,234 148.1,234 157,249.4 	"/>
	<polygon id="XMLID_21_" fill="#E9A30C" points="152.9,218 135.1,218 144,233.4 	"/>
	<polygon id="XMLID_14_" fill="#9B3B23" points="193.4,315 224.7,315 209,288 	"/>
	<polygon id="XMLID_4_" fill="#9B3B23" points="224.8,260.7 209,288 240.5,288 	"/>
	<polygon id="XMLID_2_" fill="#9B3B23" points="256.1,315 240.3,288 224.6,315 	"/>
	<polygon id="XMLID_1_" fill="#E9A30C" points="247.5,310 240.5,297.9 233.5,310 	"/>
</g>
</svg>
