<?xml version="1.0" encoding="utf-8"?>
<!-- Generator: Adobe Illustrator 19.0.0, SVG Export Plug-In . SVG Version: 6.00 Build 0)  -->
<svg version="1.1" id="Layer_1" xmlns="http://www.w3.org/2000/svg" xmlns:xlink="http://www.w3.org/1999/xlink" x="0px" y="0px"
	 viewBox="0 0 600 600" style="enable-background:new 0 0 600 600;" xml:space="preserve">
<polygon id="XMLID_1_" style="fill:#DD4E10;" points="300,153.3 167,383.7 33.9,153.3 "/>
<polygon id="XMLID_3_" style="fill:#DD4E10;" points="566.1,153.3 433,383.7 300,153.3 "/>
<polygon id="XMLID_4_" style="fill:#9B3B23;" points="221.9,312.8 300,177.4 378.1,312.8 "/>
<polygon id="XMLID_5_" style="fill:#DD4E10;" points="378.1,309.7 300,445 221.9,309.7 "/>
<polygon id="XMLID_7_" style="fill:#9B3B23;" points="332.3,410.1 384.1,320.4 436,410.1 "/>
<polygon id="XMLID_6_" style="fill:#DD4E10;" points="436,410.1 384.1,499.9 332.3,410.1 "/>
<polygon id="XMLID_9_" style="fill:#9B3B23;" points="163.8,410.1 215.6,320.4 267.5,410.1 "/>
<polygon id="XMLID_8_" style="fill:#DD4E10;" points="267.5,410.1 215.6,499.9 163.8,410.1 "/>
<polygon id="XMLID_11_" style="fill:#9B3B23;" points="273.8,526.6 300,481.2 326.2,526.6 "/>
<polygon id="XMLID_10_" style="fill:#DD4E10;" points="326.2,526.6 300,572 273.8,526.6 "/>
<polygon id="XMLID_15_" style="fill:#9B3B23;" points="245.4,466.4 271.7,420.9 297.9,466.4 "/>
<polygon id="XMLID_14_" style="fill:#DD4E10;" points="297.9,466.3 271.7,511.8 245.4,466.3 "/>
<polygon id="XMLID_13_" style="fill:#9B3B23;" points="301.1,466.4 327.3,420.9 353.5,466.4 "/>
<polygon id="XMLID_12_" style="fill:#DD4E10;" points="353.5,466.4 327.3,511.8 301.1,466.4 "/>
<rect id="XMLID_2_" x="6.5" y="134.1" style="fill:#43CE8B;" width="586.9" height="17.1"/>
<rect id="XMLID_16_" x="21" y="52" style="fill:none;" width="570" height="47"/>
<text id="XMLID_17_" transform="matrix(1 0 0 1 101.5459 89.6797)"><tspan x="0" y="0" style="fill:#DD4E10; font-family:'Exo-Regular'; font-size:48px;">i am </tspan><tspan x="101.5" y="0" style="fill:#DD4E10; font-family:'Exo-Regular'; font-size:48px; letter-spacing:-1;">f</tspan><tspan x="119.2" y="0" style="fill:#DD4E10; font-family:'Exo-Regular'; font-size:48px;">r</tspan><tspan x="138.7" y="0" style="fill:#DD4E10; font-family:'Exo-Regular'; font-size:48px;">om an is</tspan><tspan x="317.9" y="0" style="fill:#DD4E10; font-family:'Exo-Regular'; font-size:48px;">l</tspan><tspan x="331.8" y="0" style="fill:#DD4E10; font-family:'Exo-Regular'; font-size:48px;">a</tspan><tspan x="356.7" y="0" style="fill:#DD4E10; font-family:'Exo-Regular'; font-size:48px;">n</tspan><tspan x="382.3" y="0" style="fill:#DD4E10; font-family:'Exo-Regular'; font-size:48px;">d</tspan></text>
</svg>
