<?xml version="1.0" encoding="utf-8"?>
<!-- Generator: Adobe Illustrator 19.2.1, SVG Export Plug-In . SVG Version: 6.00 Build 0)  -->
<svg version="1.1" id="Layer_1" xmlns="http://www.w3.org/2000/svg" xmlns:xlink="http://www.w3.org/1999/xlink" x="0px" y="0px"
	 viewBox="0 0 600 600" enable-background="new 0 0 600 600" xml:space="preserve">
<polygon id="XMLID_1_" fill="#E9A30C" points="300,153.3 167,383.7 33.9,153.3 "/>
<polygon id="XMLID_3_" fill="#E9A30C" points="566.1,153.3 433,383.7 300,153.3 "/>
<polygon id="XMLID_4_" fill="#AF7A09" points="221.9,312.8 300,177.4 378.1,312.8 "/>
<polygon id="XMLID_5_" fill="#E9A30C" points="378.1,312.7 300,448 221.9,312.7 "/>
<polygon id="XMLID_7_" fill="#AF7A09" points="332.3,410.1 384.1,320.4 436,410.1 "/>
<polygon id="XMLID_6_" fill="#E9A30C" points="436,410.1 384.1,499.9 332.3,410.1 "/>
<polygon id="XMLID_9_" fill="#AF7A09" points="163.8,410.1 215.6,320.4 267.5,410.1 "/>
<polygon id="XMLID_8_" fill="#E9A30C" points="267.5,410.1 215.6,499.9 163.8,410.1 "/>
<polygon id="XMLID_11_" fill="#AF7A09" points="273.8,526.6 300,481.2 326.2,526.6 "/>
<polygon id="XMLID_10_" fill="#E9A30C" points="326.2,526.6 300,572 273.8,526.6 "/>
<polygon id="XMLID_15_" fill="#AF7A09" points="245.4,466.4 271.7,420.9 297.9,466.4 "/>
<polygon id="XMLID_14_" fill="#E9A30C" points="297.9,466.3 271.7,511.8 245.4,466.3 "/>
<polygon id="XMLID_13_" fill="#AF7A09" points="301.1,466.4 327.3,420.9 353.5,466.4 "/>
<polygon id="XMLID_12_" fill="#E9A30C" points="353.5,466.4 327.3,511.8 301.1,466.4 "/>
<rect id="XMLID_2_" x="6.5" y="134.1" fill="#1DAA8B" width="586.9" height="17.1"/>
<rect id="XMLID_16_" x="21" y="52" fill="none" width="570" height="47"/>
<text transform="matrix(1 0 0 1 101.5459 89.6797)" fill="#F2F2F2" font-family="'Exo-Regular'" font-size="48px">i am </text>
<text transform="matrix(1 0 0 1 203.0459 89.6797)" fill="#F2F2F2" font-family="'Exo-Regular'" font-size="48px">f</text>
<text transform="matrix(1 0 0 1 220.7459 89.6797)" fill="#F2F2F2" font-family="'Exo-Regular'" font-size="48px">r</text>
<text transform="matrix(1 0 0 1 240.2459 89.6797)" fill="#F2F2F2" font-family="'Exo-Regular'" font-size="48px">om an is</text>
<text transform="matrix(1 0 0 1 419.4459 89.6797)" fill="#F2F2F2" font-family="'Exo-Regular'" font-size="48px">l</text>
<text transform="matrix(1 0 0 1 433.3459 89.6797)" fill="#F2F2F2" font-family="'Exo-Regular'" font-size="48px">a</text>
<text transform="matrix(1 0 0 1 458.2459 89.6797)" fill="#F2F2F2" font-family="'Exo-Regular'" font-size="48px">n</text>
<text transform="matrix(1 0 0 1 483.8459 89.6797)" fill="#F2F2F2" font-family="'Exo-Regular'" font-size="48px">d</text>
</svg>
