<?xml version="1.0" encoding="utf-8"?>
<!-- Generator: Adobe Illustrator 19.2.1, SVG Export Plug-In . SVG Version: 6.00 Build 0)  -->
<svg version="1.1" id="Layer_1" xmlns="http://www.w3.org/2000/svg" xmlns:xlink="http://www.w3.org/1999/xlink" x="0px" y="0px"
	 viewBox="0 0 101 101" enable-background="new 0 0 101 101" xml:space="preserve">
<g>
	<path fill="#E9A30C" d="M50.4,94.6C26,94.6,6.2,74.7,6.2,50.3C6.2,25.9,26,6.1,50.4,6.1s44.3,19.9,44.3,44.3
		C94.7,74.7,74.8,94.6,50.4,94.6z M50.4,8.1C27.1,8.1,8.2,27,8.2,50.3c0,23.3,19,42.3,42.3,42.3s42.3-19,42.3-42.3
		C92.7,27,73.7,8.1,50.4,8.1z"/>
</g>
<g>
	<circle fill="#E9A30C" cx="50.4" cy="50.3" r="34.7"/>
	<path fill="#EDB53D" d="M50.4,85c-19.2,0-34.7-15.5-34.7-34.7s15.5-34.7,34.7-34.7V85z"/>
</g>
<g>
	<path fill="#232323" d="M20.7,43.9H22l0.5,1.6c1.5-0.9,2.7-1.7,4.7-1.7c1.6,0,3.1,0.7,3.7,1.9c1.3-1.1,3.1-1.9,5.3-1.9
		c2.3,0,4.1,1.7,4.1,4.3v9.1h-1.8V48c0-1.5-0.9-2.4-2.2-2.4c-2,0-3.2,0.3-4.9,1.4v1v9.2h-1.8V48c0-1.5-1-2.4-2.3-2.4
		c-1.9,0-2.8,0.5-4.7,1.4v10.2h-1.8V43.9z"/>
	<path fill="#232323" d="M48.5,43.8c3.1,0,5.1,0.3,5.1,4.7c0,1.9-1,3-3.4,3h-5.6c0,3.1,0.6,3.9,2.5,3.9c2.3,0,4.4,0,6.2-0.2v1.4
		c-2,0.6-4.2,0.7-6.2,0.7c-3.4,0-4.4-1.6-4.4-6.8C42.7,44.5,44.4,43.8,48.5,43.8z M50.1,49.7c1.1,0,1.6-0.4,1.6-1.2
		c0-2.6-0.5-2.8-3.2-2.8c-2.8,0-4,0-4,4.1H50.1z"/>
	<path fill="#232323" d="M56.1,43.9h1.3l0.6,1.5c1.5-0.9,2.9-1.8,4.9-1.8c2.6,0,4.1,2,4.1,4.2v9.2h-1.8v-9.2c0-1.6-1-2.4-2.2-2.4
		c-2,0-3,0.5-4.9,1.4v10.2h-1.8V43.9z"/>
	<path fill="#232323" d="M69.4,43.9h1.8v9.2c0,1.7,1,2.4,2.2,2.4c2,0,3-0.5,4.9-1.4V43.9h1.8v13.3H79l-0.5-1.5
		c-1.5,0.9-2.9,1.8-4.9,1.8c-2.6,0-4.1-2-4.1-4.2V43.9z"/>
</g>
</svg>
