<?xml version="1.0" encoding="utf-8"?>
<!-- Generator: Adobe Illustrator 19.0.0, SVG Export Plug-In . SVG Version: 6.00 Build 0)  -->
<svg version="1.1" id="Layer_1" xmlns="http://www.w3.org/2000/svg" xmlns:xlink="http://www.w3.org/1999/xlink" x="0px" y="0px"
	 viewBox="0 0 259.6 261.8" style="enable-background:new 0 0 259.6 261.8;" xml:space="preserve">
<style type="text/css">
	.st0{fill:#9B3B23;}
	.st1{fill:#3A3735;}
	.st2{fill:none;stroke:#9B3B23;stroke-width:17;stroke-miterlimit:10;}
</style>
<g id="XMLID_15_">
	<path id="XMLID_20_" class="st0" d="M39.8,101.7c0-3.5,2.2-5.9,5.9-5.9c0,0,9.8,0,9.8,0c0,0,0-2.9,0-2.9c0-2.7-1.4-3.6-3.6-3.6
		c-3.2,0-7,0.2-11.3,0.5v-2.4c3.1-0.9,7-1.3,11.4-1.3c3.7,0,6.7,1.9,6.7,6.8v17h-2.4l-0.8-2.8c-0.1,0-5.8,3.1-9.8,3.1
		c-3.2,0-5.9-2.1-5.9-5.8V101.7z M45.7,106.9c3.5,0,9.8-2.2,9.8-2.2v-6.3l-9.8,0.7c-1.9,0.2-2.6,1.5-2.6,2.9v2.2
		C43.1,106.2,44.2,106.9,45.7,106.9z"/>
	<path id="XMLID_23_" class="st0" d="M63.5,86.5h2.3l1,2.7c2.7-1.5,5.1-3.1,8.6-3.1c4.7,0,7.2,3.6,7.2,7.5v16.3h-3.3V93.6
		c0-2.9-1.7-4.2-4-4.2c-3.5,0-5.2,0.9-8.6,2.5v18h-3.3V86.5z"/>
	<path id="XMLID_25_" class="st0" d="M85.2,87.3l4.4-0.8l0.8-6.5h2.5v6.5h6.8v3.3h-6.8v11.8c0,3.8,1,4.7,2.5,5.1
		c0,0,3.6,0.9,3.9,0.9v2.3h-3.9c-3.4,0-5.8-2.1-5.8-8.3V89.7h-4.4V87.3z"/>
	<path id="XMLID_27_" class="st0" d="M113.5,86.3c7.9,0,10.3,2.9,10.3,12.2c0,8.7-2.4,11.6-10.3,11.6c-7.9,0-10.3-3.2-10.3-11.6
		C103.2,89,105.8,86.3,113.5,86.3z M113.5,106.9c4.8,0,7-0.6,7-8.3c0-8.4-1.9-9-7-9c-4.9,0-7,0.6-7,9
		C106.5,106.3,109,106.9,113.5,106.9z M116.7,77.8h4.2l-5.9,5.9h-3L116.7,77.8z"/>
	<path id="XMLID_31_" class="st0" d="M128.6,86.5h2.3l1,2.7c2.7-1.5,5.1-3.1,8.6-3.1c4.7,0,7.2,3.6,7.2,7.5v16.3h-3.3V93.6
		c0-2.9-1.7-4.2-4-4.2c-3.5,0-5.2,0.9-8.6,2.5v18h-3.3V86.5z"/>
	<path id="XMLID_33_" class="st0" d="M152.1,80.4c0-0.7,0.4-1.1,1.1-1.1h2.2c0.7,0,1,0.5,1,1.1v2.4c0,0.7-0.4,1-1,1h-2.2
		c-0.6,0-1.1-0.4-1.1-1V80.4z M152.6,86.5h3.3v23.4h-3.3V86.5z"/>
	<path id="XMLID_36_" class="st0" d="M161.2,86.5h2.3l1,2.8c2.7-1.5,4.8-3.1,8.3-3.1c2.9,0,5.5,1.3,6.5,3.4c2.3-1.9,5.5-3.4,9.4-3.4
		c4,0,7.2,3,7.2,7.5v16.1h-3.3V93.8c0-2.6-1.7-4.3-4-4.3c-3.5,0-5.7,0.6-8.6,2.5v1.7v16.2h-3.3V93.8c0-2.6-1.7-4.3-4-4.3
		c-3.4,0-4.9,0.8-8.3,2.5v17.9h-3.3V86.5z"/>
	<path id="XMLID_38_" class="st0" d="M210.2,86.3c7.9,0,10.3,2.9,10.3,12.2c0,8.7-2.4,11.6-10.3,11.6s-10.3-3.2-10.3-11.6
		C199.9,89,202.5,86.3,210.2,86.3z M210.2,106.9c4.8,0,7-0.6,7-8.3c0-8.4-1.9-9-7-9c-4.9,0-7,0.6-7,9
		C203.1,106.3,205.6,106.9,210.2,106.9z"/>
</g>
<g id="XMLID_14_">
	<path id="XMLID_41_" class="st1" d="M37.8,133.4l6.7-1.2v-6.8c0-3.7,0.2-10.8,8.5-10.8c3.4,0,6.3,0.6,9.7,1.7v3.4
		c-0.1,0-8.5-0.1-8.5-0.1c-4.4-0.1-4.6,2.5-4.6,5.8v6.8h10.2v5.1H49.6v31.5h-5.1v-31.5h-6.7V133.4z"/>
	<path id="XMLID_43_" class="st1" d="M81.4,132c8.6,0,14,0.8,14,13c0,5.3-2.8,8.4-9.5,8.4H70.5c0,8.6,1.6,10.8,7,10.8
		c6.3,0,12.1,0.1,17.2-0.7v3.9c-5.6,1.6-11.5,1.9-17.2,1.9c-9.3,0-12.1-4.5-12.1-18.8C65.4,134.1,70.1,132,81.4,132z M86,148.3
		c3,0,4.3-1.1,4.3-3.4c0-7.2-1.4-7.9-8.8-7.9c-7.8,0-11,0.1-11,11.2H86z"/>
	<path id="XMLID_46_" class="st1" d="M102.3,132.3h3.6l1.5,4.6c4.2-2.4,8-5,13.7-5c2,0,4.3,0.1,5.1,0.6v5c-0.8-0.2-3.1-0.4-5.1-0.4
		c-5.5,0-8.3,1.4-13.7,4v27.9h-5.1V132.3z"/>
	<path id="XMLID_48_" class="st1" d="M131.7,132.3h3.6l1.5,4.6c4.2-2.4,8-5,13.7-5c2,0,4.3,0.1,5.1,0.6v5c-0.8-0.2-3.1-0.4-5.1-0.4
		c-5.5,0-8.3,1.4-13.7,4v27.9h-5.1V132.3z"/>
	<path id="XMLID_50_" class="st1" d="M159.7,156c0-5.5,3.5-9.2,9.2-9.2c0,0,15.3,0.1,15.3,0c0,0,0.1-4.6,0-4.6
		c0-4.2-2.2-5.7-5.7-5.7c-5,0-11,0.3-17.7,0.8v-3.7c4.9-1.4,11-2,17.9-2.1c5.7-0.1,10.6,3,10.6,10.6v26.7h-3.8l-1.3-4.4
		c-0.1,0-9,4.8-15.3,4.8c-5,0-9.2-3.2-9.2-9.1V156z M168.9,164.2c5.5,0,15.3-3.5,15.3-3.5v-9.9l-15.3,1.1c-3,0.3-4.1,2.3-4.1,4.5
		v3.5C164.8,163.2,166.6,164.2,168.9,164.2z"/>
	<path id="XMLID_53_" class="st1" d="M194.9,132.3h27.3v5.1l-19.6,26.4h19.6c0.1,0.1,0,5.1,0,5.1h-26.3v-5.1l19.9-26.4h-21V132.3z"
		/>
</g>
<rect id="XMLID_16_" x="23.4" y="22.4" class="st2" width="214.8" height="214.8"/>
</svg>
