<?xml version="1.0" encoding="utf-8"?>
<!-- Generator: Adobe Illustrator 19.0.0, SVG Export Plug-In . SVG Version: 6.00 Build 0)  -->
<svg version="1.1" id="Layer_1" xmlns="http://www.w3.org/2000/svg" xmlns:xlink="http://www.w3.org/1999/xlink" x="0px" y="0px"
	 viewBox="0 0 159 159" style="enable-background:new 0 0 159 159;" xml:space="preserve">
<style type="text/css">
	.st0{fill:#9B3B23;}
	.st1{fill:#742C1A;}
	.st2{fill:#232323;}
	#XMLID_1_:hover{fill:#f5f5f5;}
</style>
<g id="XMLID_28_">
	<g id="XMLID_55_">
		
			<rect id="XMLID_50_" x="23.3" y="23.3" transform="matrix(-0.7071 -0.7071 0.7071 -0.7071 79.492 191.9107)" class="st0" width="112.4" height="112.4"/>
		<polyline id="XMLID_57_" class="st1" points="79.5,159 0,79.5 79.5,0 		"/>
	</g>
	<g id="XMLID_58_">
		
			<rect id="XMLID_139_" x="50.2" y="50.2" transform="matrix(0.7071 -0.7071 0.7071 0.7071 -32.9267 79.492)" class="st0" width="58.5" height="58.5"/>
		<polyline id="XMLID_138_" class="st1" points="38.1,79.5 79.5,38.1 120.9,79.5 		"/>
	</g>
</g>
<g id="XMLID_1_">
	<path id="XMLID_29_" class="st2" d="M29.3,65.8V69h0.1c0.9-1.2,1.9-2.2,3.1-2.9c1.2-0.7,2.6-1,4.2-1c1.5,0,2.9,0.3,4.1,0.9
		c1.2,0.6,2.2,1.6,2.8,3.1c0.7-1,1.7-2,2.9-2.8c1.2-0.8,2.6-1.2,4.3-1.2c1.3,0,2.4,0.2,3.5,0.5c1.1,0.3,2,0.8,2.8,1.5
		c0.8,0.7,1.4,1.6,1.8,2.6c0.4,1.1,0.6,2.4,0.6,3.9v15.9H53V76.1c0-0.8,0-1.5-0.1-2.3c-0.1-0.7-0.2-1.3-0.5-1.8s-0.7-0.9-1.2-1.2
		c-0.5-0.3-1.3-0.5-2.2-0.5s-1.7,0.2-2.2,0.5c-0.6,0.4-1,0.8-1.3,1.4c-0.3,0.6-0.5,1.2-0.6,1.9c-0.1,0.7-0.2,1.4-0.2,2.2v13.2h-6.5
		V76.3c0-0.7,0-1.4,0-2.1c0-0.7-0.2-1.3-0.4-1.9c-0.2-0.6-0.6-1.1-1.1-1.4c-0.5-0.4-1.3-0.5-2.4-0.5c-0.3,0-0.7,0.1-1.2,0.2
		c-0.5,0.1-1,0.4-1.5,0.8c-0.5,0.4-0.9,0.9-1.2,1.7c-0.3,0.7-0.5,1.7-0.5,2.8v13.8h-6.5V65.8H29.3z"/>
	<path id="XMLID_31_" class="st2" d="M71.6,83.9c1,1,2.4,1.4,4.2,1.4c1.3,0,2.5-0.3,3.4-1c1-0.7,1.5-1.4,1.7-2.1h5.8
		c-0.9,2.9-2.3,4.9-4.2,6.1s-4.2,1.8-6.9,1.8c-1.9,0-3.6-0.3-5.1-0.9c-1.5-0.6-2.8-1.4-3.8-2.6c-1-1.1-1.8-2.4-2.4-4
		c-0.6-1.5-0.9-3.2-0.9-5.1c0-1.8,0.3-3.4,0.9-5c0.6-1.5,1.4-2.9,2.5-4c1.1-1.1,2.4-2,3.8-2.6c1.5-0.6,3.1-1,4.9-1
		c2,0,3.8,0.4,5.3,1.2c1.5,0.8,2.7,1.8,3.7,3.2c1,1.3,1.7,2.8,2.1,4.5c0.4,1.7,0.6,3.5,0.5,5.3H70C70.1,81.4,70.7,83,71.6,83.9z
		 M79,71.4c-0.8-0.9-2-1.3-3.6-1.3c-1,0-1.9,0.2-2.6,0.5c-0.7,0.4-1.2,0.8-1.7,1.3c-0.4,0.5-0.7,1.1-0.9,1.7
		c-0.2,0.6-0.3,1.1-0.3,1.6h10.6C80.3,73.5,79.8,72.2,79,71.4z"/>
	<path id="XMLID_34_" class="st2" d="M97.3,65.8v3.3h0.1c0.8-1.4,1.9-2.4,3.2-3c1.3-0.6,2.7-0.9,4-0.9c1.7,0,3.2,0.2,4.3,0.7
		c1.1,0.5,2,1.1,2.6,2c0.6,0.8,1.1,1.9,1.4,3.1c0.3,1.2,0.4,2.6,0.4,4v14.6h-6.5V76.2c0-2-0.3-3.4-0.9-4.4c-0.6-1-1.7-1.4-3.3-1.4
		c-1.8,0-3.1,0.5-3.9,1.6s-1.2,2.8-1.2,5.2v12.5H91V65.8H97.3z"/>
	<path id="XMLID_36_" class="st2" d="M134.4,89.6v-3.3h-0.1c-0.8,1.4-1.9,2.4-3.2,3c-1.3,0.6-2.7,0.9-4,0.9c-1.7,0-3.2-0.2-4.3-0.7
		s-2-1.1-2.6-2c-0.6-0.8-1.1-1.9-1.4-3.1s-0.4-2.6-0.4-4V65.8h6.5v13.4c0,2,0.3,3.4,0.9,4.4c0.6,1,1.7,1.4,3.3,1.4
		c1.8,0,3.1-0.5,3.9-1.6c0.8-1.1,1.2-2.8,1.2-5.2V65.8h6.5v23.8H134.4z"/>
</g>
</svg>
